<svg version="1.1" id="Layer_1" xmlns="http://www.w3.org/2000/svg" xmlns:xlink="http://www.w3.org/1999/xlink" x="0px" y="0px" viewBox="0 0 500 500" style="width: 166px;" xml:space="preserve" data-imageid="boston-4" imageName="Boston" class="illustrations_image">
<style type="text/css">
	.st0_boston-4{fill:#68E1FD;}
	.st1_boston-4{fill:#FFFFFF;}
	.st2_boston-4{fill:#231F20;}
	.st3_boston-4{fill:#D1D3D4;}
</style>
<g id="Sky_boston-4">
	<rect x="25.2" y="104.2" class="st0_boston-4 targetColor" width="449.7" height="291.7" style="fill: rgb(104, 225, 253);"/>
</g>
<g id="Cloud_boston-4">
	<path class="st1_boston-4" d="M260,184c-0.6,0.1-1.3,0-1.9-0.2c-2.3-1-3.6-3.5-5.2-5.5c-6.1-7.4-19.9-5.3-23.6,3.5&#10;&#9;&#9;c-5.4-3.4-10.9-6.9-17.1-8.5s-13.3-1-18.2,3.2c-4,3.4-6.4,8.9-11.4,10.5c-7.6,2.4-15.1-6.2-23-4.8c-3.2,0.6-5.8,2.7-8.3,4.7&#10;&#9;&#9;c-5.6,4.6-10.4,11.4-16.8,15c-7,4-15.1,3.5-23.2,4.4L53,212.1c24.1,4.5,48.6,9,73,6.2c10.5-1.2,21.4-3.8,31.6-0.7&#10;&#9;&#9;c18.8,5.8,30.4,8.2,48.1-3.7c1.2-0.9,2.5-1.6,4-1.8c1.3,0,2.7,0.4,3.8,1.1c19.5,8.9,37.2,5.7,57.5,4.3c22.9-1.5,45.5,1.7,68.2,4.3&#10;&#9;&#9;c5.1,0.6,10.2,1.1,15.3,1.7l10.4,1.1c16.1,1.7,32.7,3.4,48.2-1.3c3.5-1.1,7-2.4,10.5-3.5s7.2-1.8,10.9-2.5l22.8-4.6&#10;&#9;&#9;c-9.6-8.4-22.4-9.9-33-17.2c-8.4-5.9-26.2-14.4-36.6-11.4c-9,2.6-16.2,10.2-19.5-5.7c-0.8-3.6-1-7.3-2.3-10.7&#10;&#9;&#9;c-1.4-3.4-3.6-6.4-6.3-8.8c-7.5-6.7-17.4-10-27.4-9c-13.3,1.4-18.3,9.4-27.2,17.5c-7.2,6.6-17,6.8-26,8.9&#10;&#9;&#9;C274.8,177.5,265,183.6,260,184z"/>
</g>
<g id="Buildings_boston-4">
	<path class="st2_boston-4" d="M406,173.1c-0.4,0-0.7-0.3-0.7-0.7c0,0,0,0,0,0v-22.3c0-0.4,0.3-0.7,0.7-0.7c0.4,0,0.7,0.3,0.7,0.7v22.3&#10;&#9;&#9;C406.7,172.8,406.4,173.1,406,173.1z"/>
	<path class="st2_boston-4" d="M391.6,177.8c-0.4,0-0.7-0.3-0.7-0.7c0,0,0,0,0,0v-12.8c0-0.4,0.3-0.7,0.7-0.7c0.4,0,0.7,0.3,0.7,0.7&#10;&#9;&#9;c0,0,0,0,0,0v12.8C392.3,177.4,392,177.7,391.6,177.8z"/>
	<path class="st2_boston-4" d="M65.1,275.2c-0.4,0-0.7-0.3-0.7-0.7l0,0v-9.5c0-0.4,0.3-0.7,0.7-0.7c0.4,0,0.7,0.3,0.7,0.7v9.5&#10;&#9;&#9;C65.8,274.9,65.5,275.2,65.1,275.2C65.1,275.2,65.1,275.2,65.1,275.2z"/>
	<rect x="387" y="185.1" class="st2_boston-4" width="41.2" height="18.5"/>
	<path class="st2_boston-4" d="M428.2,204.3H387c-0.4,0-0.7-0.3-0.7-0.7c0,0,0,0,0,0v-18.5c0-0.4,0.3-0.7,0.7-0.7l0,0h41.2&#10;&#9;&#9;c0.4,0,0.7,0.3,0.7,0.7c0,0,0,0,0,0v18.5C428.9,204,428.6,204.3,428.2,204.3C428.2,204.3,428.2,204.3,428.2,204.3z M387.7,202.9&#10;&#9;&#9;h39.8v-17.1h-39.8V202.9z"/>
	<polygon class="st1_boston-4" points="407.7,186.8 434.1,188.6 434.1,337.4 407.7,337.4 &#9;"/>
	<path class="st2_boston-4" d="M434.1,338h-26.4c-0.4,0-0.7-0.3-0.7-0.7v0V186.8c0-0.2,0.1-0.4,0.2-0.5c0.1-0.1,0.3-0.2,0.5-0.2l26.4,1.8&#10;&#9;&#9;c0.4,0,0.7,0.3,0.7,0.7v148.7C434.8,337.7,434.5,338,434.1,338z M408.4,336.6h25V189.3l-25-1.7V336.6z"/>
	<path class="st2_boston-4" d="M381.9,197.8c-0.4,0-0.7-0.3-0.7-0.7c0-0.3,0.2-0.6,0.5-0.7l25.9-6.5c0.1,0,0.1,0,0.2,0l26.4,2.2&#10;&#9;&#9;c0.4,0,0.7,0.4,0.6,0.8c0,0,0,0,0,0c0,0.4-0.4,0.7-0.8,0.6l-26.2-2.2l-25.8,6.5C382,197.8,381.9,197.8,381.9,197.8z"/>
	<path class="st2_boston-4" d="M381.9,204.3c-0.4,0-0.7-0.3-0.7-0.7c0-0.3,0.2-0.6,0.5-0.7l25.9-6.5c0.1,0,0.1,0,0.2,0l26.4,2.2&#10;&#9;&#9;c0.4,0,0.7,0.4,0.6,0.8c0,0.4-0.4,0.7-0.8,0.6l-26.2-2.2l-25.8,6.4L381.9,204.3z"/>
	<path class="st2_boston-4" d="M381.9,210.8c-0.4,0-0.7-0.3-0.7-0.7c0-0.3,0.2-0.6,0.5-0.7l25.9-6.5c0.1,0,0.1,0,0.2,0l26.4,2.2&#10;&#9;&#9;c0.4,0,0.7,0.3,0.7,0.7c0,0.4-0.3,0.7-0.7,0.7c0,0-0.1,0-0.1,0l-26.2-2.2l-25.8,6.5L381.9,210.8z"/>
	<path class="st2_boston-4" d="M381.9,217.3c-0.3,0-0.6-0.2-0.7-0.5c-0.1-0.4,0.1-0.7,0.5-0.8c0,0,0,0,0,0l25.9-6.5c0.1,0,0.1,0,0.2,0&#10;&#9;&#9;l26.4,2.2c0.4,0,0.7,0.4,0.6,0.8c0,0,0,0,0,0c0,0.4-0.4,0.7-0.8,0.6l-26.2-2.2l-25.8,6.5L381.9,217.3z"/>
	<path class="st2_boston-4" d="M381.9,223.8c-0.4,0-0.7-0.3-0.7-0.7c0-0.3,0.2-0.6,0.5-0.7l25.9-6.5c0.1,0,0.1,0,0.2,0l26.4,2.2&#10;&#9;&#9;c0.4,0,0.7,0.3,0.7,0.7c0,0.4-0.3,0.7-0.7,0.7c0,0-0.1,0-0.1,0l-26.2-2.2l-25.8,6.5L381.9,223.8z"/>
	<path class="st2_boston-4" d="M381.9,230.3c-0.4,0-0.7-0.3-0.7-0.7c0-0.3,0.2-0.6,0.5-0.7l25.9-6.5c0.1,0,0.1,0,0.2,0l26.4,2.2&#10;&#9;&#9;c0.4,0,0.7,0.4,0.6,0.8c0,0.4-0.4,0.7-0.8,0.6l-26.2-2.2l-25.8,6.5C382,230.3,381.9,230.3,381.9,230.3z"/>
	<path class="st2_boston-4" d="M381.9,236.8c-0.4,0-0.7-0.3-0.7-0.7c0-0.3,0.2-0.6,0.5-0.7l25.9-6.5c0.1,0,0.1,0,0.2,0l26.4,2.2&#10;&#9;&#9;c0.4,0,0.7,0.4,0.6,0.8c0,0.4-0.4,0.7-0.8,0.6l0,0l-26.2-2.2l-25.8,6.5L381.9,236.8z"/>
	<path class="st2_boston-4" d="M381.9,243.3c-0.4,0-0.7-0.3-0.7-0.7c0-0.3,0.2-0.6,0.5-0.7l25.9-6.5c0.1,0,0.1,0,0.2,0l26.4,2.2&#10;&#9;&#9;c0.4,0,0.7,0.4,0.6,0.8c0,0.4-0.4,0.7-0.8,0.6l-26.2-2.2l-25.8,6.4L381.9,243.3z"/>
	<path class="st2_boston-4" d="M381.9,249.8c-0.3,0-0.6-0.2-0.7-0.5c-0.1-0.4,0.1-0.7,0.5-0.8c0,0,0,0,0,0l25.9-6.5c0.1,0,0.1,0,0.2,0&#10;&#9;&#9;l26.4,2.2c0.4,0,0.7,0.4,0.6,0.8c0,0,0,0,0,0c0,0.4-0.4,0.7-0.8,0.6l-26.2-2.2l-25.8,6.4L381.9,249.8z"/>
	<path class="st2_boston-4" d="M381.9,256.3c-0.4,0-0.7-0.3-0.7-0.7c0-0.3,0.2-0.6,0.5-0.7l25.9-6.5c0.1,0,0.1,0,0.2,0l26.4,2.2&#10;&#9;&#9;c0.4,0,0.7,0.4,0.7,0.7s-0.4,0.7-0.7,0.7c0,0,0,0-0.1,0l-26.2-2.2l-25.8,6.5L381.9,256.3z"/>
	<path class="st2_boston-4" d="M381.9,262.8c-0.4,0-0.7-0.3-0.7-0.7c0-0.3,0.2-0.6,0.5-0.7l25.9-6.5c0.1,0,0.1,0,0.2,0l26.4,2.2&#10;&#9;&#9;c0.4,0,0.7,0.4,0.6,0.8c0,0.4-0.4,0.7-0.8,0.6l-26.2-2.2l-25.8,6.4C382,262.8,381.9,262.8,381.9,262.8z"/>
	<path class="st2_boston-4" d="M381.9,269.3c-0.4,0-0.7-0.3-0.7-0.7c0-0.3,0.2-0.6,0.5-0.7l25.9-6.5c0.1,0,0.1,0,0.2,0l26.4,2.2&#10;&#9;&#9;c0.4,0,0.7,0.4,0.6,0.8c0,0.4-0.4,0.7-0.8,0.6l0,0l-26.2-2.2l-25.8,6.5L381.9,269.3z"/>
	<path class="st2_boston-4" d="M381.9,275.8c-0.4,0-0.7-0.3-0.7-0.7c0-0.3,0.2-0.6,0.5-0.7l25.9-6.5c0.1,0,0.1,0,0.2,0l26.4,2.2&#10;&#9;&#9;c0.4,0,0.7,0.3,0.7,0.7c0,0.4-0.3,0.7-0.7,0.7c0,0-0.1,0-0.1,0l-26.2-2.2l-25.8,6.5L381.9,275.8z"/>
	<path class="st2_boston-4" d="M381.9,282.3c-0.3,0-0.6-0.2-0.7-0.5c-0.1-0.4,0.1-0.7,0.5-0.8c0,0,0,0,0,0l25.9-6.5c0.1,0,0.1,0,0.2,0&#10;&#9;&#9;l26.4,2.2c0.4,0,0.7,0.4,0.6,0.8c0,0,0,0,0,0c0,0.4-0.4,0.7-0.8,0.6l-26.2-2.2l-25.8,6.4L381.9,282.3z"/>
	<path class="st2_boston-4" d="M381.9,288.8c-0.4,0-0.7-0.3-0.7-0.7c0-0.3,0.2-0.6,0.5-0.7l25.9-6.5c0.1,0,0.1,0,0.2,0l26.4,2.2&#10;&#9;&#9;c0.4,0,0.7,0.3,0.7,0.7c0,0.4-0.3,0.7-0.7,0.7c0,0-0.1,0-0.1,0l-26.2-2.2l-25.8,6.5L381.9,288.8z"/>
	<path class="st2_boston-4" d="M381.9,295.3c-0.3,0-0.6-0.2-0.7-0.5c-0.1-0.4,0.1-0.7,0.5-0.8c0,0,0,0,0,0l25.9-6.5c0.1,0,0.1,0,0.2,0&#10;&#9;&#9;l26.4,2.2c0.4,0,0.7,0.4,0.6,0.8c0,0,0,0,0,0c0,0.4-0.4,0.7-0.8,0.6l-26.2-2.2l-25.8,6.4C382,295.3,381.9,295.3,381.9,295.3z"/>
	<path class="st2_boston-4" d="M381.9,301.9c-0.4,0-0.7-0.3-0.7-0.7c0-0.3,0.2-0.6,0.5-0.7l25.9-6.5c0.1,0,0.1,0,0.2,0l26.4,2.2&#10;&#9;&#9;c0.4,0,0.7,0.4,0.6,0.8c0,0.4-0.4,0.7-0.8,0.6l0,0l-26.2-2.2l-25.8,6.5L381.9,301.9z"/>
	<path class="st2_boston-4" d="M381.9,308.4c-0.4,0-0.7-0.3-0.7-0.7c0-0.3,0.2-0.6,0.5-0.7l25.9-6.5c0.1,0,0.1,0,0.2,0l26.4,2.2&#10;&#9;&#9;c0.4,0,0.7,0.2,0.8,0.6c0,0.4-0.2,0.7-0.6,0.8c-0.1,0-0.2,0-0.3,0l-26.2-2.2l-25.8,6.5C382,308.3,381.9,308.3,381.9,308.4z"/>
	<path class="st2_boston-4" d="M381.9,314.9c-0.3,0-0.6-0.2-0.7-0.5c-0.1-0.4,0.1-0.7,0.5-0.8c0,0,0,0,0,0l25.9-6.5c0.1,0,0.1,0,0.2,0&#10;&#9;&#9;l26.4,2.2c0.4,0,0.7,0.4,0.6,0.8c0,0,0,0,0,0c0,0.4-0.4,0.7-0.8,0.6l-26.2-2.2l-25.8,6.4L381.9,314.9z"/>
	<polygon class="st2_boston-4" points="407.7,337.4 381.9,337.4 381.9,193.5 407.7,186.8 &#9;"/>
	<path class="st2_boston-4" d="M407.7,338h-25.9c-0.4,0-0.7-0.3-0.7-0.7v0V193.5c0-0.3,0.2-0.6,0.5-0.7l25.9-6.7c0.4-0.1,0.8,0.1,0.9,0.5&#10;&#9;&#9;c0,0.1,0,0.1,0,0.2v150.5C408.4,337.7,408.1,338,407.7,338z M382.6,336.6H407V187.7l-24.5,6.3L382.6,336.6z"/>
	<rect x="361.4" y="280.3" class="st2_boston-4" width="22.3" height="51.4"/>
	<path class="st2_boston-4" d="M383.6,332.4h-22.3c-0.4,0-0.7-0.3-0.7-0.7v0v-51.4c0-0.4,0.3-0.7,0.7-0.7h0h22.3c0.4,0,0.7,0.3,0.7,0.7v0&#10;&#9;&#9;v51.4C384.3,332.1,384,332.4,383.6,332.4z M362.1,331h20.9v-50h-20.9V331z"/>
	<rect x="383.6" y="280.2" class="st3_boston-4" width="20.9" height="51.4"/>
	<path class="st2_boston-4" d="M404.6,332.4h-20.9c-0.4,0-0.7-0.3-0.7-0.7v0v-51.4c0-0.4,0.3-0.7,0.7-0.7h0h20.9c0.4,0,0.7,0.3,0.7,0.7v0&#10;&#9;&#9;v51.4C405.3,332.1,404.9,332.4,404.6,332.4L404.6,332.4z M384.3,331h19.5v-50h-19.5V331z"/>
	<polyline class="st2_boston-4" points="357.3,323.1 357.3,248.5 349.2,248.5 349.2,242.1 343.7,242.1 343.7,230.9 318.9,230.9 318.9,243.3 &#10;&#9;&#9;314.4,243.3 314.4,254.5 306.8,254.5 306.8,325.3 359.1,323.5 &#9;"/>
	<path class="st2_boston-4" d="M306.8,326c-0.2,0-0.4-0.1-0.5-0.2c-0.1-0.1-0.2-0.3-0.2-0.5v-70.8c0-0.4,0.3-0.7,0.7-0.7l0,0h6.9v-10.5&#10;&#9;&#9;c0-0.4,0.3-0.7,0.7-0.7l0,0h3.8v-11.7c0-0.4,0.3-0.7,0.7-0.7l0,0h24.8c0.4,0,0.7,0.3,0.7,0.7c0,0,0,0,0,0v10.5h4.8&#10;&#9;&#9;c0.4,0,0.7,0.3,0.7,0.7c0,0,0,0,0,0v5.7h7.4c0.4,0,0.7,0.3,0.7,0.7c0,0,0,0,0,0v74.3h1c0.4,0,0.7,0.3,0.7,0.6c0,0,0,0,0,0&#10;&#9;&#9;c0,0.4-0.3,0.7-0.7,0.7L306.8,326L306.8,326z M307.5,255.2v69.3l49.2-1.7v-73.7h-7.4c-0.4,0-0.7-0.3-0.7-0.7c0,0,0,0,0,0v-5.7h-4.8&#10;&#9;&#9;c-0.4,0-0.7-0.3-0.7-0.7c0,0,0,0,0,0v-10.5h-23.4v11.7c0,0.4-0.3,0.7-0.7,0.7l0,0h-3.8v10.5c0,0.4-0.3,0.7-0.7,0.7l0,0L307.5,255.2&#10;&#9;&#9;z"/>
	<polygon class="st1_boston-4" points="297.1,261.1 328.9,261.1 328.9,349 289.6,352.2 &#9;"/>
	<path class="st2_boston-4" d="M289.6,352.9c-0.2,0-0.4-0.1-0.5-0.2c-0.1-0.1-0.2-0.3-0.2-0.5l7.5-91c0-0.4,0.3-0.6,0.7-0.6h31.7&#10;&#9;&#9;c0.4,0,0.7,0.3,0.7,0.7v0V349c0,0.4-0.3,0.7-0.6,0.7L289.6,352.9L289.6,352.9z M297.8,261.9l-7.4,89.6l37.8-3v-86.6L297.8,261.9z"/>
	<rect x="304.5" y="272.6" class="st2_boston-4" width="37" height="11"/>
	<path class="st2_boston-4" d="M341.5,284.3h-36.9c-0.4,0-0.7-0.3-0.7-0.7v0v-11c0-0.4,0.3-0.7,0.7-0.7h0h37c0.4,0,0.7,0.3,0.7,0.7v0v11&#10;&#9;&#9;C342.2,284,341.8,284.3,341.5,284.3C341.5,284.3,341.5,284.3,341.5,284.3z M305.2,282.9h35.5v-9.6h-35.5V282.9z"/>
	<polygon class="st2_boston-4" points="279.2,325.2 279.2,264.3 297.1,261.1 297.1,328 &#9;"/>
	<path class="st2_boston-4" d="M297.1,328.7H297l-17.9-2.8c-0.3-0.1-0.6-0.4-0.6-0.7v-60.9c0-0.3,0.2-0.6,0.6-0.7l18-3.2c0.2,0,0.4,0,0.6,0.1&#10;&#9;&#9;c0.2,0.1,0.2,0.3,0.2,0.5V328c0,0.2-0.1,0.4-0.2,0.5C297.5,328.6,297.3,328.7,297.1,328.7z M279.9,324.6l16.5,2.6V262l-16.5,2.9&#10;&#9;&#9;V324.6z"/>
	<path class="st2_boston-4" d="M237.8,268.2v51c0,0,23.5,2.1,23.5,0V274h-12.7v-3.6h-5.5v-2.2L237.8,268.2z"/>
	<path class="st2_boston-4" d="M254.7,320.9c-5.9,0-13.8-0.7-17-1c-0.4,0-0.6-0.3-0.6-0.7v-51c0-0.4,0.3-0.7,0.7-0.7h5.3&#10;&#9;&#9;c0.4,0,0.7,0.3,0.7,0.7l0,0v1.5h4.8c0.4,0,0.7,0.3,0.7,0.7l0,0v2.9h12c0.4,0,0.7,0.3,0.7,0.7v0v45.3c0,0.3-0.1,0.6-0.4,0.8&#10;&#9;&#9;C260.9,320.7,258.1,320.9,254.7,320.9z M238.5,318.6c9.9,0.9,20.5,1.3,22.1,0.4v-44.4h-12c-0.4,0-0.7-0.3-0.7-0.7l0,0v-2.8h-4.8&#10;&#9;&#9;c-0.4,0-0.7-0.3-0.7-0.7l0,0v-1.5h-3.9L238.5,318.6z"/>
	<polygon class="st1_boston-4" points="228.1,322.4 228.1,299.8 264.4,299.8 264.4,343.3 &#9;"/>
	<path class="st2_boston-4" d="M264.4,344c-0.1,0-0.2,0-0.4-0.1l-36.3-21c-0.2-0.1-0.4-0.4-0.4-0.6v-22.6c0-0.4,0.3-0.7,0.7-0.7c0,0,0,0,0,0&#10;&#9;&#9;h36.3c0.4,0,0.7,0.3,0.7,0.7v0v43.6c0,0.2-0.1,0.5-0.4,0.6C264.6,343.9,264.5,344,264.4,344z M228.8,322l34.9,20.1v-41.7h-34.9V322&#10;&#9;&#9;z"/>
	<path class="st1_boston-4" d="M245,297h2.4c1.7,0,3,1.3,3,3v37.3l0,0H242l0,0V300C242,298.3,243.3,297,245,297z"/>
	<path class="st2_boston-4" d="M250.5,338H242c-0.4,0-0.7-0.3-0.7-0.7l0,0v-36.1c-0.1-2.7,2-5,4.7-5.2s5,2,5.2,4.7c0,0.1,0,0.3,0,0.4v36.1&#10;&#9;&#9;C251.2,337.7,250.9,338,250.5,338C250.5,338,250.5,338,250.5,338z M242.7,336.6h7.1v-35.4c0.1-2-1.4-3.6-3.3-3.7&#10;&#9;&#9;c-2-0.1-3.6,1.4-3.7,3.3c0,0.1,0,0.3,0,0.4V336.6z"/>
	<rect x="245.1" y="301.7" class="st2_boston-4" width="2.3" height="17.5"/>
	<path class="st2_boston-4" d="M247.4,319.9h-2.3c-0.4,0-0.7-0.3-0.7-0.7l0,0v-17.5c0-0.4,0.3-0.7,0.7-0.7c0,0,0,0,0,0h2.3&#10;&#9;&#9;c0.4,0,0.7,0.3,0.7,0.7l0,0v17.5C248.1,319.6,247.8,319.9,247.4,319.9C247.4,319.9,247.4,319.9,247.4,319.9z M245.8,318.5h0.9&#10;&#9;&#9;v-16.1h-0.9V318.5z"/>
	<rect x="211.9" y="256.1" class="st1_boston-4" width="9.9" height="75.3"/>
	<path class="st2_boston-4" d="M221.8,332.1h-9.9c-0.4,0-0.7-0.3-0.7-0.7l0,0v-75.3c0-0.4,0.3-0.7,0.7-0.7h9.9c0.4,0,0.7,0.3,0.7,0.7v75.3&#10;&#9;&#9;C222.5,331.8,222.1,332.1,221.8,332.1C221.8,332.1,221.8,332.1,221.8,332.1z M212.6,330.7h8.4v-73.9h-8.4V330.7z"/>
	<path class="st2_boston-4" d="M186.8,257.5l25.1-1.3v75.3c0,0-25.9,1.1-28.5,1.1S186.8,257.5,186.8,257.5z"/>
	<path class="st2_boston-4" d="M183.4,333.2c-0.2,0-0.5-0.1-0.6-0.3c-2.3-2.5,2-58.4,3.4-75.5c0-0.3,0.3-0.6,0.7-0.6l25.1-1.3&#10;&#9;&#9;c0.2,0,0.4,0.1,0.5,0.2c0.1,0.1,0.2,0.3,0.2,0.5v75.3c0,0.4-0.3,0.7-0.7,0.7C210.9,332.2,186,333.2,183.4,333.2z M183.8,332&#10;&#9;&#9;L183.8,332z M187.5,258.1c-2.2,27.9-5,69.5-3.7,73.6c3.6-0.1,23.6-0.9,27.5-1v-73.9L187.5,258.1z"/>
	<polygon class="st1_boston-4" points="169.7,256.1 186.8,257.5 186.8,330.2 165.5,326.8 &#9;"/>
	<path class="st2_boston-4" d="M186.8,331h-0.1l-21.3-3.5c-0.4-0.1-0.6-0.4-0.6-0.7l4.2-70.7c0-0.2,0.1-0.4,0.2-0.5c0.1-0.1,0.3-0.2,0.5-0.2&#10;&#9;&#9;l17.1,1.3c0.4,0,0.7,0.3,0.6,0.7v72.8c0,0.2-0.1,0.4-0.2,0.5C187.1,330.9,187,331,186.8,331z M166.2,326.2l19.9,3.2v-71.4&#10;&#9;&#9;l-15.7-1.2L166.2,326.2z"/>
	<rect x="155.5" y="256.1" class="st2_boston-4" width="14.2" height="52.7"/>
	<path class="st2_boston-4" d="M169.7,309.5h-14.2c-0.4,0-0.7-0.3-0.7-0.7l0,0v-52.7c0-0.4,0.3-0.7,0.7-0.7h14.2c0.4,0,0.7,0.3,0.7,0.7v52.7&#10;&#9;&#9;C170.4,309.2,170.1,309.5,169.7,309.5C169.7,309.5,169.7,309.5,169.7,309.5z M156.2,308.1H169v-51.3h-12.8L156.2,308.1z"/>
	<polygon class="st2_boston-4" points="140.8,280.3 140.8,291 136.9,291 127.9,299.9 126.1,337.4 152.2,335.1 153.4,291 &#9;"/>
	<path class="st2_boston-4" d="M126.1,338c-0.2,0-0.4-0.1-0.5-0.2c-0.1-0.1-0.2-0.3-0.2-0.5l1.8-37.4c0-0.2,0.1-0.3,0.2-0.5l8.9-8.9&#10;&#9;&#9;c0.1-0.1,0.3-0.2,0.5-0.2h3.2v-10c0-0.3,0.2-0.5,0.4-0.6c0.2-0.1,0.5-0.1,0.7,0.1l12.6,10.6c0.2,0.1,0.2,0.3,0.2,0.5l-1.2,44.1&#10;&#9;&#9;c0,0.4-0.3,0.6-0.6,0.7L126.1,338L126.1,338z M128.6,300.2l-1.8,36.4l24.7-2.2l1.2-43.1l-11.2-9.5v9.2c0,0.4-0.3,0.7-0.7,0.7&#10;&#9;&#9;c0,0,0,0,0,0h-3.6L128.6,300.2z"/>
	<path class="st1_boston-4" d="M147.5,330.2c0.3-1,0-39.3,0-39.3l-6.7-10.6l33.9,1.8l6.1,11.6v38.8L147.5,330.2z"/>
	<path class="st2_boston-4" d="M180.8,333.2L180.8,333.2l-33.3-2.2c-0.4,0-0.7-0.4-0.6-0.8c0,0,0-0.1,0-0.1c0.2-1.3,0.1-23.9,0-38.9&#10;&#9;&#9;l-6.6-10.5c-0.1-0.2-0.1-0.5,0-0.7c0.1-0.2,0.4-0.4,0.6-0.4l33.9,1.8c0.2,0,0.5,0.2,0.6,0.4l6,11.6c0.1,0.1,0.1,0.2,0.1,0.3v38.8&#10;&#9;&#9;C181.4,332.9,181.1,333.2,180.8,333.2C180.7,333.2,180.7,333.2,180.8,333.2L180.8,333.2z M148.2,329.6l31.9,2.1v-37.8l-5.8-11.1&#10;&#9;&#9;l-32.2-1.8l5.9,9.5c0.1,0.1,0.1,0.2,0.1,0.4C148.2,299.2,148.4,324.6,148.2,329.6z"/>
	<polygon class="st1_boston-4" points="103.5,244.7 128.2,246.6 128.2,248.9 133.7,248.9 133.7,354.8 96.7,344 &#9;"/>
	<path class="st2_boston-4" d="M133.7,355.5c-0.1,0-0.1,0-0.2,0l-37-10.8c-0.3-0.1-0.6-0.4-0.5-0.8l6.8-99.3c0-0.2,0.1-0.4,0.2-0.5&#10;&#9;&#9;c0.1-0.1,0.3-0.2,0.5-0.2l24.7,1.8c0.4,0,0.7,0.3,0.6,0.7v1.7h4.8c0.4,0,0.7,0.3,0.7,0.7v105.9c0,0.2-0.1,0.4-0.3,0.6&#10;&#9;&#9;C134,355.5,133.9,355.5,133.7,355.5z M97.4,343.5l35.6,10.4V249.6h-4.8c-0.4,0-0.7-0.3-0.7-0.7v-1.7l-23.3-1.7L97.4,343.5z"/>
	<path class="st2_boston-4" d="M105.6,338.7c0.3-1.3,0-88.7,0-88.7l-2.1-2.5v-4.2H93.3v3.9h-8.2v90.4L105.6,338.7z"/>
	<path class="st2_boston-4" d="M105.6,339.4L105.6,339.4l-20.5-1c-0.4,0-0.7-0.3-0.7-0.7v-90.4c0-0.4,0.3-0.7,0.7-0.7h7.4v-3.2&#10;&#9;&#9;c0-0.4,0.3-0.7,0.7-0.7h10.2c0.4,0,0.7,0.3,0.7,0.7v3.9l1.9,2.3c0.1,0.1,0.2,0.3,0.2,0.4c0,8.9,0.2,87.4,0,88.8&#10;&#9;&#9;C106.3,339.1,106,339.4,105.6,339.4z M85.8,336.9l19.1,1c0.2-6.5,0-59.2,0-87.7l-1.9-2.3c-0.1-0.1-0.2-0.3-0.2-0.4V244H94v3.2&#10;&#9;&#9;c0,0.4-0.3,0.7-0.7,0.7h-7.5V336.9z"/>
	<polygon class="st2_boston-4" points="57.3,271.2 45.4,274 45.4,278.7 42.5,279.5 42.5,343.7 57.3,333.5 &#9;"/>
	<path class="st2_boston-4" d="M42.5,344.4c-0.1,0-0.2,0-0.3-0.1c-0.2-0.1-0.4-0.4-0.4-0.6v-64.3c0-0.3,0.2-0.6,0.5-0.7l2.4-0.6V274&#10;&#9;&#9;c0-0.3,0.2-0.6,0.5-0.7l11.8-2.8c0.4-0.1,0.8,0.1,0.8,0.5c0,0.1,0,0.1,0,0.2v62.3c0,0.2-0.1,0.4-0.3,0.6l-14.8,10.2&#10;&#9;&#9;C42.8,344.4,42.6,344.4,42.5,344.4z M43.2,280v62.4l13.4-9.3v-61l-10.4,2.4v4.2c0,0.3-0.2,0.6-0.5,0.7L43.2,280z"/>
	<path class="st1_boston-4" d="M57.3,333.5c0.2-0.8,0-62.3,0-62.3h30v6.5h9.5v58.7L57.3,333.5z"/>
	<path class="st2_boston-4" d="M96.7,337.1L96.7,337.1l-39.4-3c-0.4,0-0.7-0.4-0.6-0.8c0,0,0,0,0,0c0.2-1.5,0.1-41.3,0-62.2&#10;&#9;&#9;c0-0.2,0.1-0.4,0.2-0.5c0.1-0.1,0.3-0.2,0.5-0.2h29.9c0.4,0,0.7,0.3,0.7,0.7l0,0v5.8h8.8c0.4,0,0.7,0.3,0.7,0.7l0,0v58.7&#10;&#9;&#9;C97.4,336.8,97.1,337.1,96.7,337.1L96.7,337.1L96.7,337.1z M58,332.8l38,2.9v-57.3h-8.8c-0.4,0-0.7-0.3-0.7-0.7l0,0v-5.8H58&#10;&#9;&#9;C58,289.4,58.1,326.8,58,332.8z"/>
	<polygon class="st1_boston-4" points="25.2,299.5 31.2,299.5 31.2,303.8 36.8,303.8 36.8,299.5 48.6,299.5 48.6,336.4 25.2,336.4 &#9;"/>
	<path class="st2_boston-4" d="M48.6,337.1H25.2c-0.4,0-0.7-0.3-0.7-0.7l0,0v-36.9c0-0.4,0.3-0.7,0.7-0.7c0,0,0,0,0,0h6.1&#10;&#9;&#9;c0.4,0,0.7,0.3,0.7,0.7l0,0v3.6h4.1v-3.6c0-0.4,0.3-0.7,0.7-0.7c0,0,0,0,0,0h11.8c0.4,0,0.7,0.3,0.7,0.7l0,0v36.9&#10;&#9;&#9;C49.3,336.8,49,337.1,48.6,337.1C48.6,337.1,48.6,337.1,48.6,337.1z M25.9,335.7h22v-35.5H37.5v3.6c0,0.4-0.3,0.7-0.7,0.7&#10;&#9;&#9;c0,0,0,0,0,0h-5.5c-0.4,0-0.7-0.3-0.7-0.7l0,0v-3.6h-4.7L25.9,335.7z"/>
	<polygon class="st1_boston-4" points="102.7,330.2 102.7,314 112.7,314 112.7,320.8 129.3,320.8 129.3,325 140.8,325 140.8,348.9 &#9;"/>
	<path class="st2_boston-4" d="M140.8,349.6c-0.1,0-0.2,0-0.3-0.1l-38.1-18.7c-0.2-0.1-0.4-0.4-0.4-0.6V314c0-0.4,0.3-0.7,0.7-0.7h0h10&#10;&#9;&#9;c0.4,0,0.7,0.3,0.7,0.7l0,0v6.1h15.9c0.4,0,0.7,0.3,0.7,0.7l0,0v3.5h10.9c0.4,0,0.7,0.3,0.7,0.7l0,0V349c0,0.2-0.1,0.5-0.3,0.6&#10;&#9;&#9;C141.1,349.6,141,349.6,140.8,349.6z M103.4,329.8l36.7,18v-22.1h-10.9c-0.4,0-0.7-0.3-0.7-0.7l0,0v-3.5h-15.9&#10;&#9;&#9;c-0.4,0-0.7-0.3-0.7-0.7l0,0v-6.1h-8.6L103.4,329.8z"/>
	<polygon class="st1_boston-4" points="136.9,351 136.9,318 158.7,318 158.7,323.7 163.7,323.7 163.7,347.9 &#9;"/>
	<path class="st2_boston-4" d="M136.9,351.7c-0.2,0-0.3-0.1-0.5-0.2c-0.2-0.1-0.2-0.3-0.2-0.5v-33c0-0.4,0.3-0.7,0.7-0.7c0,0,0,0,0,0h21.8&#10;&#9;&#9;c0.4,0,0.7,0.3,0.7,0.7l0,0v5h4.3c0.4,0,0.7,0.3,0.7,0.7l0,0v24.2c0,0.4-0.3,0.6-0.6,0.7l-26.8,3.1H136.9z M137.6,318.7v31.5&#10;&#9;&#9;l25.4-3v-22.9h-4.3c-0.4,0-0.7-0.3-0.7-0.7l0,0v-5L137.6,318.7z"/>
	<polygon class="st3_boston-4" points="175.5,343.9 175.5,319.2 191.3,319.2 191.3,314 204.4,314 204.4,351 &#9;"/>
	<path class="st2_boston-4" d="M204.4,351.7c-0.1,0-0.1,0-0.2,0l-28.9-7.1c-0.3-0.1-0.5-0.4-0.5-0.7v-24.7c0-0.4,0.3-0.7,0.7-0.7c0,0,0,0,0,0&#10;&#9;&#9;h15.1V314c0-0.4,0.3-0.7,0.7-0.7c0,0,0,0,0,0h13.1c0.4,0,0.7,0.3,0.7,0.7l0,0v37C205.1,351.4,204.8,351.7,204.4,351.7&#10;&#9;&#9;C204.4,351.7,204.4,351.7,204.4,351.7L204.4,351.7z M176.2,343.4l27.5,6.8v-35.5H192v4.6c0,0.4-0.3,0.7-0.7,0.7c0,0,0,0,0,0h-15.1&#10;&#9;&#9;L176.2,343.4z"/>
	<polygon class="st3_boston-4" points="199.7,348.9 199.7,321.3 214.7,321.3 214.7,326.6 224.1,326.6 224.1,353.4 &#9;"/>
	<path class="st2_boston-4" d="M224.1,354.1H224l-24.4-4.5c-0.3-0.1-0.6-0.4-0.6-0.7v-27.6c0-0.4,0.3-0.7,0.7-0.7c0,0,0,0,0,0h15&#10;&#9;&#9;c0.4,0,0.7,0.3,0.7,0.7l0,0v4.5h8.8c0.4,0,0.7,0.3,0.7,0.7v26.8c0,0.2-0.1,0.4-0.2,0.5C224.5,354,224.3,354.1,224.1,354.1z&#10;&#9;&#9; M200.4,348.3l23,4.2v-25.3h-8.8c-0.4,0-0.7-0.3-0.7-0.7l0,0V322h-13.5V348.3z"/>
	<polygon class="st2_boston-4" points="217.5,352.2 217.5,319.2 240.7,319.2 240.7,322.4 248.6,322.4 248.6,347.3 &#9;"/>
	<path class="st2_boston-4" d="M217.5,352.9c-0.2,0-0.3-0.1-0.4-0.2c-0.2-0.1-0.2-0.3-0.2-0.5v-32.9c0-0.4,0.3-0.7,0.7-0.7c0,0,0,0,0,0h23.2&#10;&#9;&#9;c0.4,0,0.7,0.3,0.7,0.7l0,0v2.4h7.2c0.4,0,0.7,0.3,0.7,0.7l0,0v25c0,0.3-0.3,0.6-0.6,0.7l-31.1,4.8L217.5,352.9z M218.2,319.9v31.4&#10;&#9;&#9;l29.7-4.6v-23.7h-7.2c-0.4,0-0.7-0.3-0.7-0.7v-2.4H218.2z"/>
	<polygon class="st2_boston-4" points="265.9,343.1 265.9,324.7 276.4,324.7 276.4,318.2 301.1,318.2 301.1,347.6 &#9;"/>
	<path class="st2_boston-4" d="M301.1,348.3H301l-35.2-4.5c-0.3,0-0.6-0.3-0.6-0.7v-18.4c0-0.4,0.3-0.7,0.7-0.7h0h9.8v-5.9&#10;&#9;&#9;c0-0.4,0.3-0.7,0.7-0.7h24.7c0.4,0,0.7,0.3,0.7,0.7v0v29.4c0,0.2-0.1,0.4-0.2,0.5C301.4,348.2,301.3,348.3,301.1,348.3z&#10;&#9;&#9; M266.6,342.5l33.8,4.3v-27.9h-23.3v5.9c0,0.4-0.3,0.7-0.7,0.7h0h-9.8V342.5z"/>
	<polygon class="st3_boston-4" points="315.3,347.6 315.3,322.9 334.2,322.9 334.2,312.9 349,312.9 349,322.4 363.9,322.4 363.9,341.3 &#9;"/>
	<path class="st2_boston-4" d="M315.3,348.3c-0.2,0-0.3-0.1-0.5-0.2c-0.2-0.1-0.2-0.3-0.2-0.5v-24.7c0-0.4,0.3-0.7,0.7-0.7h18.2v-9.3&#10;&#9;&#9;c0-0.4,0.3-0.7,0.7-0.7h0H349c0.4,0,0.7,0.3,0.7,0.7v0v8.8H364c0.4,0,0.7,0.3,0.7,0.7v0v18.9c0,0.4-0.3,0.6-0.6,0.7l-48.6,6.3&#10;&#9;&#9;L315.3,348.3z M316,323.6v23.2l47.2-6.1v-17.6H349c-0.4,0-0.7-0.3-0.7-0.7v0v-8.8h-13.4v9.3c0,0.4-0.3,0.7-0.7,0.7h0L316,323.6z"/>
	<path class="st2_boston-4" d="M352.4,342c0.8-0.1,0-26.2,0-26.2h11.5v-8.1h22.9v9.7h16.3v29.4L352.4,342z"/>
	<path class="st2_boston-4" d="M403.1,347.5L403.1,347.5l-50.8-4.8c-0.4,0-0.6-0.3-0.6-0.7c0-0.2,0-0.3,0.1-0.4c0.4-1.7,0.1-16.6-0.1-25.8&#10;&#9;&#9;c0-0.2,0.1-0.4,0.2-0.5c0.1-0.1,0.3-0.2,0.5-0.2h10.8v-7.5c0-0.4,0.3-0.7,0.7-0.7h0h22.9c0.4,0,0.7,0.3,0.7,0.7v0v9h15.6&#10;&#9;&#9;c0.4,0,0.7,0.3,0.7,0.7v0v29.4c0,0.2-0.1,0.4-0.2,0.5C403.4,347.4,403.3,347.5,403.1,347.5z M353.2,341.4l49.2,4.6v-28h-15.6&#10;&#9;&#9;c-0.4,0-0.7-0.3-0.7-0.7v-9h-21.5v7.5c0,0.4-0.3,0.7-0.7,0.7h0h-10.8C353.6,333.1,353.6,339.1,353.2,341.4z M352.3,341.3&#10;&#9;&#9;L352.3,341.3z"/>
	<path class="st2_boston-4" d="M398.4,352.2v-26.9h15v-12.4h19.2v17.3h13.9v-12.6c0,0,28.4-1.8,28.4,0v42L398.4,352.2z"/>
	<path class="st2_boston-4" d="M474.8,360.4L474.8,360.4l-76.6-7.5c-0.4,0-0.6-0.3-0.6-0.7v-26.9c0-0.4,0.3-0.7,0.7-0.7h0h14.3v-11.6&#10;&#9;&#9;c0-0.4,0.3-0.7,0.7-0.7h0h19.2c0.4,0,0.7,0.3,0.7,0.7v0v16.6h12.5v-11.9c0-0.4,0.3-0.7,0.6-0.7c8.1-0.5,27.1-1.6,28.8,0&#10;&#9;&#9;c0.2,0.2,0.3,0.4,0.3,0.7v42c0,0.2-0.1,0.4-0.2,0.5C475.2,360.3,475,360.4,474.8,360.4z M399.1,351.5l75.1,7.4v-41&#10;&#9;&#9;c-2-0.7-14.9-0.4-27,0.4v12c0,0.4-0.3,0.7-0.7,0.7h0h-13.9c-0.4,0-0.7-0.3-0.7-0.7v0v-16.6H414v11.6c0,0.4-0.3,0.7-0.7,0.7h0h-14.2&#10;&#9;&#9;V351.5z"/>
	<path class="st2_boston-4" d="M432.5,348.9c-0.4,0-0.7-0.3-0.7-0.7v0v-18c0-0.4,0.3-0.7,0.7-0.7s0.7,0.3,0.7,0.7c0,0,0,0,0,0v18&#10;&#9;&#9;C433.2,348.6,432.9,348.9,432.5,348.9z"/>
	<path class="st2_boston-4" d="M87.2,278.4H57.3c-0.4,0-0.7-0.3-0.7-0.7c0-0.4,0.3-0.7,0.7-0.7h29.9c0.4,0,0.7,0.3,0.7,0.7&#10;&#9;&#9;C87.9,278.1,87.6,278.4,87.2,278.4C87.2,278.4,87.2,278.4,87.2,278.4z"/>
	<path class="st2_boston-4" d="M91.4,283.9H62c-0.4,0-0.7-0.3-0.7-0.7c0-0.4,0.3-0.7,0.7-0.7c0,0,0,0,0,0h29.4c0.4,0,0.7,0.3,0.7,0.7&#10;&#9;&#9;C92.1,283.6,91.8,283.9,91.4,283.9C91.4,283.9,91.4,283.9,91.4,283.9z"/>
	<path class="st2_boston-4" d="M91.4,289.4H62c-0.4,0-0.7-0.3-0.7-0.7c0-0.4,0.3-0.7,0.7-0.7h29.4c0.4,0,0.7,0.3,0.7,0.7&#10;&#9;&#9;C92.1,289.1,91.8,289.4,91.4,289.4z"/>
	<path class="st2_boston-4" d="M91.4,295H62c-0.4,0-0.7-0.3-0.7-0.7c0-0.4,0.3-0.7,0.7-0.7h29.4c0.4,0,0.7,0.3,0.7,0.7&#10;&#9;&#9;C92.1,294.7,91.8,295,91.4,295C91.4,295,91.4,295,91.4,295z"/>
	<path class="st2_boston-4" d="M91.4,300.5H62c-0.4,0-0.7-0.3-0.7-0.7c0-0.4,0.3-0.7,0.7-0.7c0,0,0,0,0,0h29.4c0.4,0,0.7,0.3,0.7,0.7&#10;&#9;&#9;C92.1,300.2,91.8,300.5,91.4,300.5C91.4,300.5,91.4,300.5,91.4,300.5z"/>
	<path class="st2_boston-4" d="M91.4,306H62c-0.4,0-0.7-0.3-0.7-0.7c0-0.4,0.3-0.7,0.7-0.7h29.4c0.4,0,0.7,0.3,0.7,0.7&#10;&#9;&#9;C92.1,305.7,91.8,306,91.4,306z"/>
	<path class="st2_boston-4" d="M91.4,311.5H62c-0.4,0-0.7-0.3-0.7-0.7c0-0.4,0.3-0.7,0.7-0.7h29.4c0.4,0,0.7,0.3,0.7,0.7&#10;&#9;&#9;C92.1,311.2,91.8,311.5,91.4,311.5C91.4,311.5,91.4,311.5,91.4,311.5z"/>
	<path class="st2_boston-4" d="M91.4,317H62c-0.4,0-0.7-0.3-0.7-0.7c0-0.4,0.3-0.7,0.7-0.7h29.4c0.4,0,0.7,0.3,0.7,0.7&#10;&#9;&#9;C92.1,316.7,91.8,317,91.4,317C91.4,317,91.4,317,91.4,317z"/>
	<rect x="306.8" y="280.3" class="st1_boston-4" width="37.6" height="59.9"/>
	<path class="st2_boston-4" d="M344.4,340.8h-37.7c-0.4,0-0.7-0.3-0.7-0.7v0v-59.9c0-0.4,0.3-0.7,0.7-0.7h0h37.6c0.4,0,0.7,0.3,0.7,0.7v0&#10;&#9;&#9;v59.9C345.1,340.5,344.8,340.8,344.4,340.8z M307.5,339.4h36.2V281h-36.2V339.4z"/>
	<path class="st2_boston-4" d="M321.9,348.3c-0.4,0-0.7-0.3-0.7-0.7v0v-66.4c0-0.4,0.3-0.7,0.7-0.7s0.7,0.3,0.7,0.7c0,0,0,0,0,0v66.4&#10;&#9;&#9;C322.5,348,322.2,348.3,321.9,348.3z"/>
	<path class="st2_boston-4" d="M314.4,348.3c-0.4,0-0.7-0.3-0.7-0.7v-66.4c0-0.4,0.3-0.7,0.7-0.7s0.7,0.3,0.7,0.7c0,0,0,0,0,0v66.4&#10;&#9;&#9;C315,348,314.7,348.3,314.4,348.3z"/>
	<path class="st2_boston-4" d="M329.3,348.3c-0.4,0-0.7-0.3-0.7-0.7v-66.4c0-0.4,0.3-0.7,0.7-0.7s0.7,0.3,0.7,0.7c0,0,0,0,0,0v66.4&#10;&#9;&#9;C330,348,329.7,348.3,329.3,348.3z"/>
	<path class="st2_boston-4" d="M336.8,348.3c-0.4,0-0.7-0.3-0.7-0.7v0v-66.4c0-0.4,0.3-0.7,0.7-0.7s0.7,0.3,0.7,0.7c0,0,0,0,0,0v66.4&#10;&#9;&#9;C337.5,348,337.2,348.3,336.8,348.3z"/>
	<polygon class="st2_boston-4" points="306.8,280.3 302.2,283.2 302.2,340.1 306.8,340.1 &#9;"/>
	<path class="st2_boston-4" d="M306.8,340.8h-4.5c-0.4,0-0.7-0.3-0.7-0.7v0v-56.9c0-0.2,0.1-0.5,0.3-0.6l4.5-3c0.2-0.1,0.5-0.1,0.7,0&#10;&#9;&#9;c0.2,0.1,0.4,0.4,0.4,0.6v59.9C307.5,340.5,307.2,340.8,306.8,340.8C306.8,340.8,306.8,340.8,306.8,340.8z M302.9,339.4h3.1v-57.9&#10;&#9;&#9;l-3.1,2V339.4z"/>
	<rect x="363.9" y="273.2" class="st2_boston-4" width="17.9" height="8.1"/>
	<path class="st2_boston-4" d="M381.9,281.9h-17.9c-0.4,0-0.7-0.3-0.7-0.7v0v-8.1c0-0.4,0.3-0.7,0.7-0.7h0h17.9c0.4,0,0.7,0.3,0.7,0.7v0v8.1&#10;&#9;&#9;C382.6,281.6,382.3,281.9,381.9,281.9L381.9,281.9z M364.6,280.5h16.5v-6.7h-16.5V280.5z"/>
	<rect x="381.9" y="272.6" class="st3_boston-4" width="16.5" height="7.7"/>
	<path class="st2_boston-4" d="M398.4,281h-16.5c-0.4,0-0.7-0.3-0.7-0.7v0v-7.7c0-0.4,0.3-0.7,0.7-0.7h0h16.5c0.4,0,0.7,0.3,0.7,0.7v0v7.7&#10;&#9;&#9;C399.1,280.7,398.7,281,398.4,281z M382.6,279.6h15.1v-6.3h-15.1L382.6,279.6z"/>
	<rect x="383.2" y="178.9" class="st2_boston-4" width="48.3" height="5.6"/>
	<path class="st2_boston-4" d="M431.5,185.2h-48.3c-0.4,0-0.7-0.3-0.7-0.7c0,0,0,0,0,0v-5.6c0-0.4,0.3-0.7,0.7-0.7l0,0h48.3&#10;&#9;&#9;c0.4,0,0.7,0.3,0.7,0.7c0,0,0,0,0,0v5.6C432.2,184.9,431.9,185.2,431.5,185.2L431.5,185.2z M384,183.8h46.9v-4.2H384V183.8z"/>
	<polygon class="st2_boston-4" points="388.9,179.3 388.9,176.3 406,172.4 428.2,176.5 428.2,181.7 &#9;"/>
	<path class="st2_boston-4" d="M428.2,182.4L428.2,182.4l-39.4-2.4c-0.4,0-0.7-0.3-0.7-0.7v-3.1c0-0.3,0.2-0.6,0.5-0.7l17.2-3.9&#10;&#9;&#9;c0.1,0,0.2,0,0.3,0l22.1,4c0.3,0.1,0.6,0.4,0.6,0.7v5.2C428.9,182,428.6,182.3,428.2,182.4L428.2,182.4L428.2,182.4z M389.6,178.7&#10;&#9;&#9;l37.9,2.2v-3.9l-21.4-3.9l-16.5,3.7V178.7z"/>
	<path class="st3_boston-4" d="M110.9,311.3c-0.4,0-0.8-0.3-0.8-0.8c0,0,0,0,0,0V250c0-0.4,0.4-0.7,0.9-0.7c0.4,0,0.6,0.3,0.7,0.7v60.5&#10;&#9;&#9;C111.6,310.9,111.3,311.3,110.9,311.3C110.9,311.3,110.9,311.3,110.9,311.3z"/>
	<path class="st3_boston-4" d="M118.5,312.5c-0.4,0-0.8-0.3-0.8-0.8v-60.5c0-0.4,0.4-0.7,0.9-0.7c0.4,0,0.6,0.3,0.7,0.7v60.5&#10;&#9;&#9;C119.3,312.1,118.9,312.4,118.5,312.5z"/>
	<path class="st3_boston-4" d="M126.1,311.3c-0.4,0-0.8-0.3-0.8-0.8c0,0,0,0,0,0V250c0-0.4,0.4-0.7,0.9-0.7c0.4,0,0.6,0.3,0.7,0.7v60.5&#10;&#9;&#9;C126.9,310.9,126.5,311.3,126.1,311.3C126.1,311.3,126.1,311.3,126.1,311.3z"/>
	<path class="st2_boston-4" d="M180.8,294.4L180.8,294.4l-33.3-2.8c-0.4,0-0.7-0.4-0.6-0.8c0-0.4,0.4-0.7,0.8-0.6l33.3,2.7&#10;&#9;&#9;c0.4,0,0.7,0.4,0.6,0.8C181.4,294.1,181.1,294.4,180.8,294.4L180.8,294.4z"/>
	<path class="st3_boston-4" d="M177.1,300.5L177.1,300.5l-23.9-2.8c-0.4-0.1-0.7-0.5-0.6-0.9c0.1-0.4,0.4-0.6,0.8-0.6l23.8,2.8&#10;&#9;&#9;c0.4,0,0.7,0.4,0.7,0.8S177.5,300.6,177.1,300.5z"/>
	<path class="st3_boston-4" d="M177.1,305.3L177.1,305.3l-23.9-2.8c-0.4-0.1-0.7-0.5-0.6-0.9c0.1-0.4,0.4-0.6,0.8-0.6l23.8,2.8&#10;&#9;&#9;c0.4,0,0.7,0.4,0.7,0.8S177.5,305.3,177.1,305.3z"/>
	<path class="st3_boston-4" d="M177.1,310L177.1,310l-23.9-2.8c-0.4,0-0.7-0.4-0.7-0.8c0,0,0,0,0,0c0.1-0.4,0.4-0.7,0.9-0.7l23.8,2.8&#10;&#9;&#9;c0.4,0,0.7,0.4,0.7,0.8S177.5,310,177.1,310L177.1,310L177.1,310z"/>
	<path class="st3_boston-4" d="M177.1,314.7L177.1,314.7l-23.9-2.7c-0.4,0-0.7-0.4-0.7-0.8c0,0,0,0,0,0c0.1-0.4,0.4-0.7,0.9-0.7l23.8,2.8&#10;&#9;&#9;c0.4,0,0.7,0.4,0.7,0.8S177.5,314.8,177.1,314.7L177.1,314.7z"/>
	<path class="st3_boston-4" d="M182.7,262.5L182.7,262.5l-9.5-0.8c-0.4,0-0.7-0.4-0.7-0.8c0-0.4,0.4-0.7,0.8-0.7l0,0l9.4,0.8&#10;&#9;&#9;c0.4,0,0.8,0.4,0.7,0.8C183.5,262.2,183.2,262.5,182.7,262.5L182.7,262.5z"/>
	<path class="st3_boston-4" d="M237.8,304.6h-6.4c-0.4,0-0.8-0.4-0.8-0.8c0-0.4,0.3-0.8,0.8-0.8h6.4c0.4,0,0.8,0.3,0.8,0.8c0,0,0,0,0,0&#10;&#9;&#9;C238.6,304.3,238.2,304.6,237.8,304.6z"/>
	<path class="st3_boston-4" d="M237.8,308.6h-6.4c-0.4,0-0.8-0.3-0.8-0.8c0-0.4,0.3-0.8,0.8-0.8h6.4c0.4,0,0.8,0.3,0.8,0.8&#10;&#9;&#9;C238.6,308.3,238.2,308.6,237.8,308.6z"/>
	<path class="st3_boston-4" d="M237.8,312.6h-6.4c-0.4,0-0.7-0.4-0.7-0.9c0-0.4,0.3-0.6,0.7-0.7h6.4c0.4,0,0.8,0.3,0.9,0.7&#10;&#9;&#9;c0,0.4-0.3,0.8-0.7,0.9C237.9,312.6,237.8,312.6,237.8,312.6z"/>
	<path class="st3_boston-4" d="M260.4,304.6H254c-0.4,0-0.8-0.4-0.8-0.8c0-0.4,0.3-0.8,0.8-0.8h6.4c0.4,0,0.8,0.3,0.8,0.8c0,0,0,0,0,0&#10;&#9;&#9;C261.2,304.3,260.9,304.6,260.4,304.6C260.4,304.6,260.4,304.6,260.4,304.6z"/>
	<path class="st3_boston-4" d="M260.4,308.6H254c-0.4,0-0.8-0.3-0.8-0.8c0-0.4,0.3-0.8,0.8-0.8h6.4c0.4,0,0.8,0.3,0.8,0.8&#10;&#9;&#9;C261.2,308.3,260.9,308.6,260.4,308.6L260.4,308.6z"/>
	<path class="st3_boston-4" d="M260.4,312.6H254c-0.4,0-0.7-0.4-0.7-0.9c0-0.4,0.3-0.6,0.7-0.7h6.4c0.4,0,0.8,0.3,0.9,0.7s-0.3,0.8-0.7,0.9&#10;&#9;&#9;C260.6,312.6,260.5,312.6,260.4,312.6L260.4,312.6z"/>
</g>
<g id="Foreground_Foliage_boston-4">
	<path class="st0_boston-4 targetColor" d="M25.2,361h449.7v-16.3c0,0-12.4-12.6-18.7-8.4c0,0-13.7-2.6-17.3,1.6s-4.7,10.4-4.7,10.4s-7.4-4-11.6-3.5&#10;&#9;&#9;s-8.4-6.3-10-6.3s-21.5-5.9-25.2-3s-7.9-1.8-10.5-3.4s-7.5-1.3-10.5-1.2c-4.3,0.1-5.7-0.9-9.7-2.1c-2.3-0.7-5.4,0.2-5.6,2.6&#10;&#9;&#9;c-3-2.8-7.6-2.9-10.8-0.4c-1.1-2-2.3-4.2-4.4-5.2s-5.2-0.3-5.7,2c-3.9-1.9-9.2,0.8-9.9,5c-2.4-1.8-5.5,1-7,3.6&#10;&#9;&#9;c-1.6-2.1-4.7-2.5-6.8-0.8c-0.3,0.3-0.6,0.6-0.9,0.9c-2-4.3-6.6-6.9-11.3-6.4c-3.4-1.4-7.1-1.9-10.8-1.4c-3.2,0.4-6,3-8.8,3.5&#10;&#9;&#9;c-5.5,0.9-11.5-5.5-17-6.3c-6.3-1-10.5-1.1-13.1,0c-3.6,1.5-8.8-3-13.3-1.5c-2.3,0.8-4.2,2.3-5.5,4.4c-0.4,0.7-1.5,6.7-1.3,6.6&#10;&#9;&#9;c-3.5,1.9-6.2,5-7.5,8.8c-2.2-2.7-5.1-4.9-8.3-6.4c-1-0.4-2.4-0.6-2.8,0.4c-0.2-2.1-0.9-4.2-2-6c-0.6-1.2-1.7-2.1-2.9-2.5&#10;&#9;&#9;c-1.3-0.4-2.7,0.1-3.3,1.3c2.2-7.8-8.9-4.6-12.1-5c-2.6-0.3-4.9-2.8-7.5-2.9c-1.2,0-6.4,3.5-4.7,4c-6.9-2.1-14.4,1.9-19,7.3&#10;&#9;&#9;c-0.2,0.3-0.5,0.6-0.9,0.8c-0.3,0.1-0.7,0.1-1,0.1c-2.5-0.1-5.1,0.2-7.5,1.1c-2.6,0.9-2,3.2-4,4.6c-1.5,1-3.8,0.1-5.2,1.7&#10;&#9;&#9;c-1.6,1.8-8.4-13.4-14.7-11.3s-7.4-1-13.1-4.7s-12.6-6.2-16.3-2.6s-6.3-1.4-12.7-1.7s-17.9-6-21.5,0s-11,9.1-13.7,8&#10;&#9;&#9;s-2.1-6.3-4.7-5.8s-13.7-5-13.7-5L25.2,361z" style="fill: rgb(104, 225, 253);"/>
</g>
<g id="Waters_boston-4">
	<rect x="25.2" y="356.5" class="st1_boston-4" width="449.2" height="39.3"/>
	<path class="st2_boston-4" d="M474.4,396.5H25.2c-0.4,0-0.7-0.3-0.7-0.7l0,0v-39.3c0-0.4,0.3-0.7,0.7-0.7c0,0,0,0,0,0h449.2&#10;&#9;&#9;c0.4,0,0.7,0.3,0.7,0.7v0v39.3C475.1,396.2,474.7,396.5,474.4,396.5L474.4,396.5z M25.9,395.1h447.8v-37.9H25.9L25.9,395.1z"/>
	<rect x="25.2" y="354.8" class="st2_boston-4" width="449.2" height="6.2"/>
	<path class="st2_boston-4" d="M474.4,361.7H25.2c-0.4,0-0.7-0.3-0.7-0.7l0,0v-6.2c0-0.4,0.3-0.7,0.7-0.7c0,0,0,0,0,0h449.2&#10;&#9;&#9;c0.4,0,0.7,0.3,0.7,0.7v0v6.2C475.1,361.4,474.7,361.7,474.4,361.7C474.4,361.7,474.4,361.7,474.4,361.7z M25.9,360.3h447.8v-4.8&#10;&#9;&#9;H25.9L25.9,360.3z"/>
	<path class="st1_boston-4" d="M98,378H73.8c1.1,1,2.3,1.8,3.7,2.5c1.3,0.4,16.7,0,18.3,0S98,378,98,378z"/>
	<path class="st2_boston-4" d="M82.4,381.3c-1.7,0.1-3.4,0-5.1-0.2c-1.4-0.7-2.8-1.6-3.9-2.6c-0.2-0.2-0.3-0.5-0.2-0.8&#10;&#9;&#9;c0.1-0.3,0.4-0.5,0.7-0.5H98c0.2,0,0.4,0.1,0.6,0.3c0.1,0.2,0.2,0.4,0.1,0.6c0,0.1-0.8,3-2.9,3h-2.5&#10;&#9;&#9;C88.8,381.3,85.1,381.3,82.4,381.3z M75.8,378.7c0.6,0.5,1.2,0.8,1.9,1.1c1,0.3,11.6,0.1,15.5,0h2.6c0.5,0,0.9-0.6,1.2-1.1&#10;&#9;&#9;L75.8,378.7z M98,378.7L98,378.7z"/>
	<path class="st1_boston-4" d="M84.7,371.8c-0.7-0.1-12.5,0-12.5,0l12.5-21.9V371.8z"/>
	<path class="st2_boston-4" d="M84.7,372.5h-0.1c-0.6-0.1-7.9,0-12.3,0c-0.3,0-0.5-0.1-0.6-0.3c-0.1-0.2-0.1-0.5,0-0.7l12.5-21.9&#10;&#9;&#9;c0.2-0.3,0.5-0.4,0.8-0.3c0.3,0.1,0.5,0.4,0.5,0.7v21.9c0,0.2-0.1,0.4-0.3,0.5C85,372.4,84.9,372.5,84.7,372.5z M84,352.5&#10;&#9;&#9;l-10.6,18.6c3,0,8.4-0.1,10.6,0L84,352.5z"/>
	<polygon class="st1_boston-4" points="84.7,372.8 84.7,372.8 84.7,374.1 96.3,374.1 84.7,335.2 &#9;"/>
	<path class="st2_boston-4" d="M96.3,374.8H84.7c-0.4,0-0.7-0.3-0.7-0.7l0,0v-38.9c0-0.4,0.3-0.7,0.7-0.7c0.3,0,0.6,0.2,0.7,0.5L97,373.9&#10;&#9;&#9;c0.1,0.2,0,0.4-0.1,0.6C96.7,374.7,96.5,374.8,96.3,374.8z M85.4,373.4h9.9L85.4,340V373.4z"/>
	<path class="st2_boston-4" d="M84.7,378.7c-0.4,0-0.7-0.3-0.7-0.7l0,0V367c0-0.4,0.3-0.7,0.7-0.7c0.4,0,0.7,0.3,0.7,0.7v11&#10;&#9;&#9;C85.4,378.4,85.1,378.7,84.7,378.7z"/>
	<path class="st3_boston-4" d="M71.3,382.4c-2.3,0-4.1-0.3-4.9-1.1c-0.3-0.3-0.3-0.8,0-1.1c0,0,0,0,0,0c0.3-0.3,0.8-0.3,1.1,0c0,0,0,0,0,0&#10;&#9;&#9;c0.9,0.9,7,0.5,9.3,0.3c1-0.1,1.9-0.1,2.3-0.1l0,0c2.3,0,4.7,0.1,7,0.1c5.1,0.1,10.4,0.2,15.5-0.2c0.9,0,1.9-0.2,2.8-0.5&#10;&#9;&#9;c0.2-0.1,0.3-0.1,0.5-0.2c0.5-0.2,1-0.4,1.5-0.5c0.8-0.1,1.6,0.1,2.3,0.4h0.1c2.9,0.9,5.9,1.3,8.9,1.1c0.4,0,0.8,0.3,0.8,0.7&#10;&#9;&#9;c0,0,0,0,0,0c0,0.4-0.3,0.8-0.7,0.8c0,0,0,0,0,0c-3.2,0.2-6.4-0.2-9.5-1.1l-0.2,0c-0.5-0.2-1.1-0.3-1.6-0.3c-0.3,0.1-0.7,0.2-1,0.4&#10;&#9;&#9;c-0.2,0.1-0.4,0.2-0.6,0.2c-1,0.4-2.1,0.6-3.2,0.6c-5.1,0.4-10.5,0.3-15.6,0.2c-2.4,0-4.7-0.1-7-0.1c-0.5,0-1.2,0.1-2.2,0.1&#10;&#9;&#9;C74.9,382.3,73,382.4,71.3,382.4z"/>
	<path class="st3_boston-4" d="M258,375.4h-0.6c-0.4,0-0.8-0.4-0.8-0.8c0,0,0,0,0,0c0-0.4,0.4-0.8,0.8-0.8c4.7,0.1,9.3-1,13.4-3.2&#10;&#9;&#9;c0.5-0.3,1.1-0.6,1.8-0.6c0.9,0,1.8,0.3,2.5,0.8l0.1,0.1c4.8,2.7,10.7,2.9,15.7,0.5l0.3-0.1c0.7-0.4,1.4-0.6,2.1-0.8&#10;&#9;&#9;c1-0.1,2,0,2.9,0.4h0.2c6.3,1.7,12.9,1.8,19.2,0.4c0.4-0.1,0.8,0.2,0.9,0.6c0,0,0,0,0,0c0.1,0.4-0.2,0.8-0.6,0.9c0,0,0,0,0,0&#10;&#9;&#9;c-6.6,1.5-13.5,1.3-20-0.4l-0.2,0c-0.7-0.3-1.5-0.4-2.3-0.3c-0.6,0.1-1.1,0.3-1.7,0.6l-0.3,0.2c-5.5,2.6-11.9,2.4-17.2-0.6&#10;&#9;&#9;l-0.1-0.1c-0.5-0.3-1-0.6-1.6-0.6c-0.4,0.1-0.7,0.2-1.1,0.4C267.4,374.2,262.7,375.4,258,375.4z"/>
	<path class="st3_boston-4" d="M396.5,387.1c-6,0-11.9-1.5-17.1-4.4c-0.5-0.3-1.1-0.6-1.7-0.7c-0.7,0-1.4,0.2-2,0.5l-0.2,0.1&#10;&#9;&#9;c-4.5,1.8-9.4,2.1-14,0.7l-0.3-0.1c-0.6-0.2-1.3-0.4-2-0.3c-0.5,0.1-1.1,0.3-1.5,0.6c-0.3,0.2-0.7,0.3-1,0.5c-2.7,1-5.3,0-7.8-1.1&#10;&#9;&#9;c-2-0.8-3.9-1.6-5.9-1.4c-1.3,0.2-2.5,0.6-3.6,1.2c-0.5,0.2-1,0.4-1.5,0.6c-2.6,1-5.5,1.4-8.3,1.1c-0.4,0-0.7-0.4-0.7-0.8&#10;&#9;&#9;c0,0,0,0,0,0c0-0.4,0.4-0.7,0.8-0.7c2.6,0.3,5.2-0.1,7.6-1c0.5-0.2,0.9-0.4,1.4-0.6c1.3-0.7,2.7-1.1,4.1-1.3&#10;&#9;&#9;c2.3-0.2,4.5,0.6,6.6,1.5c2.4,1,4.6,1.8,6.7,1c0.3-0.1,0.6-0.3,0.9-0.4c0.6-0.4,1.3-0.6,2-0.7c0.9,0,1.8,0.1,2.6,0.4l0.3,0.1&#10;&#9;&#9;c4.3,1.2,8.9,1,13-0.7l0.2-0.1c0.9-0.4,1.8-0.7,2.8-0.6c0.8,0.1,1.5,0.4,2.1,0.8c5.4,3,11.6,4.4,17.8,4.2c0.4,0,0.8,0.4,0.7,0.8&#10;&#9;&#9;c0,0.4-0.3,0.7-0.7,0.7C397.4,387.1,396.9,387.1,396.5,387.1z"/>
	<path class="st3_boston-4" d="M407.5,378h-0.8c-0.4,0-0.8-0.4-0.8-0.8c0-0.4,0.4-0.7,0.8-0.7l0,0c5.3,0.2,10.5-1.8,14.3-5.5&#10;&#9;&#9;c0.2-0.2,0.6-0.3,0.9-0.1c3.9,2.1,8.2,3.4,12.5,3.7c1.7,0.1,2.8-0.2,3.2-0.9c0.1-0.1,0.1-0.2,0.2-0.4c0.1-0.3,0.3-0.6,0.6-0.9&#10;&#9;&#9;c1.3-1.4,3.2-0.3,4.4,0.4c2.2,1.2,4.8,1.4,7.2,0.5c0.4-0.2,0.8,0,1,0.4s0,0.8-0.4,1l0,0c-2.8,1.1-5.9,0.9-8.5-0.6&#10;&#9;&#9;c-1-0.6-2.1-1.1-2.5-0.7c-0.1,0.1-0.2,0.3-0.3,0.5c-0.1,0.2-0.2,0.3-0.3,0.5c-0.8,1.2-2.3,1.8-4.6,1.6c-4.4-0.3-8.8-1.6-12.7-3.6&#10;&#9;&#9;C417.8,376,412.8,378,407.5,378z"/>
	<path class="st3_boston-4" d="M155.6,373.1c-3.8,0-7.7-0.6-11.3-1.8c-0.5-0.2-1-0.3-1.5-0.4c-0.5,0-1.1,0.1-1.6,0.3c-4.7,1.5-9.7,2-14.7,1.5&#10;&#9;&#9;c-0.4,0-0.7-0.4-0.7-0.9c0.1-0.4,0.4-0.7,0.8-0.7c4.7,0.5,9.4,0,13.9-1.4c0.7-0.3,1.4-0.4,2.2-0.4c0.6,0,1.3,0.2,1.9,0.4&#10;&#9;&#9;c6,1.9,12.4,2.2,18.6,0.9c0.4-0.1,0.8,0.2,0.9,0.6c0.1,0.4-0.2,0.8-0.6,0.9C161,372.8,158.3,373.1,155.6,373.1z"/>
	<path class="st3_boston-4" d="M35,388.6c-1.3,0-2.5-0.2-3.7-0.7c-0.4-0.2-0.6-0.6-0.4-1s0.6-0.6,1-0.4c2.4,0.9,5,0.8,7.3-0.4l0.7-0.4&#10;&#9;&#9;c0.8-0.6,1.8-0.9,2.8-1.1c0.7,0,1.5,0.1,2.1,0.4h0.1c4.3,1.3,8.9,1.6,13.3,1.1c0.4-0.1,0.8,0.2,0.9,0.7s-0.2,0.8-0.7,0.9&#10;&#9;&#9;c0,0,0,0,0,0c-4.7,0.5-9.4,0.1-13.9-1.2h-0.1c-0.5-0.2-1.1-0.3-1.6-0.3c-0.8,0.1-1.5,0.4-2.1,0.9l-0.7,0.4&#10;&#9;&#9;C38.4,388.2,36.7,388.7,35,388.6z"/>
	<path class="st3_boston-4" d="M38.6,372.4h-0.5c-3.8-0.1-7.6-0.9-11.1-2.4c-0.4-0.2-0.5-0.7-0.3-1.1c0.2-0.3,0.6-0.5,0.9-0.4&#10;&#9;&#9;c3.4,1.3,6.9,2.1,10.6,2.2c0.7,0.1,1.4,0,2-0.3c0.2-0.2,0.4-0.3,0.5-0.5c0.2-0.3,0.5-0.5,0.8-0.8c1-0.6,2.2-0.7,3.4-0.4l0.4,0&#10;&#9;&#9;c2,0.2,3.9-0.2,5.7-1c0.4-0.2,0.8,0,1,0.4c0.2,0.4,0,0.8-0.4,1c-2,1-4.3,1.4-6.6,1.1l-0.4,0c-0.8-0.2-1.6-0.1-2.3,0.2&#10;&#9;&#9;c-0.2,0.2-0.4,0.3-0.5,0.5c-0.2,0.3-0.5,0.5-0.8,0.7C40.3,372.3,39.5,372.5,38.6,372.4z"/>
	<path class="st3_boston-4" d="M176.1,385.2c-1.6,0-3.1-0.2-4.6-0.6c-0.4-0.1-0.7-0.5-0.6-0.9c0.1-0.4,0.5-0.7,0.9-0.6&#10;&#9;&#9;c6.6,1.6,13.6-0.6,18.1-5.7c0.3-0.3,0.8-0.4,1.1-0.1c5.6,4.4,13.4,5,19.7,1.6c0.3-0.2,0.6-0.1,0.9,0c5.7,4.1,13.1,4.8,19.5,1.9&#10;&#9;&#9;c0.4-0.1,0.9,0.1,1,0.5c0.1,0.3,0,0.7-0.3,0.9c-6.7,3.1-14.6,2.4-20.7-1.7c-6.5,3.4-14.4,2.8-20.4-1.5&#10;&#9;&#9;C186.8,383,181.5,385.2,176.1,385.2z"/>
	<path class="st3_boston-4" d="M296.7,386.7c-3.8,0-7.5-0.7-11.1-1.9c-0.4-0.2-0.6-0.6-0.4-1c0.2-0.3,0.5-0.5,0.9-0.4&#10;&#9;&#9;c6.5,2.3,13.5,2.5,20,0.4c0.4-0.1,0.8,0.1,1,0.5c0,0,0,0,0,0c0.2,0.4,0,0.8-0.4,1c0,0,0,0-0.1,0&#10;&#9;&#9;C303.5,386.2,300.1,386.7,296.7,386.7z"/>
	<path class="st3_boston-4" d="M208.3,370.9c-1.9,0-3.7-0.3-5.5-1c-0.4-0.2-0.5-0.7-0.4-1c0.2-0.3,0.6-0.5,0.9-0.4c4.2,1.6,9,1.1,12.7-1.4&#10;&#9;&#9;c0.4-0.2,0.8-0.1,1.1,0.2c0.2,0.4,0.1,0.8-0.2,1.1C214.4,370,211.4,370.9,208.3,370.9z"/>
	<path class="st3_boston-4" d="M445.2,388.4c-2.8,0-5.5-1.1-7.4-3.2c-0.2-0.4-0.1-0.9,0.3-1.1c0.3-0.2,0.6-0.1,0.9,0.1&#10;&#9;&#9;c2.6,2.7,6.6,3.5,10,1.8l0.5-0.2c1.2-0.6,2.6-1.4,4.1-0.7c0.4,0.2,0.6,0.6,0.5,1c-0.2,0.4-0.6,0.6-1,0.5c0,0-0.1,0-0.1-0.1&#10;&#9;&#9;c-0.7-0.4-1.7,0.2-2.6,0.7l-0.5,0.3C448.2,388.1,446.7,388.4,445.2,388.4z"/>
	<path class="st3_boston-4" d="M372.1,373.9c-1.6,0-3.1-0.3-4.5-1c-0.4-0.2-0.6-0.6-0.4-1c0.2-0.4,0.6-0.6,1-0.4c3.7,1.6,8.1,0.8,11-2&#10;&#9;&#9;c0.3-0.3,0.8-0.3,1.1,0s0.3,0.8,0,1.1C378.1,372.7,375.2,373.9,372.1,373.9z"/>
</g>
<g id="Frame_boston-4">
	<path class="st2_boston-4" d="M474.8,396.5H25.2c-0.4,0-0.7-0.3-0.7-0.7l0,0V104.2c0-0.4,0.3-0.7,0.7-0.7h449.7c0.4,0,0.7,0.3,0.7,0.7v0&#10;&#9;&#9;v291.7C475.5,396.2,475.2,396.5,474.8,396.5z M25.8,395.1h448.3V104.8H25.9L25.8,395.1z"/>
</g>
</svg>