<svg version="1.1" id="Layer_1" xmlns="http://www.w3.org/2000/svg" xmlns:xlink="http://www.w3.org/1999/xlink" x="0px" y="0px" viewBox="0 0 500 500" style="width: 166px;" xml:space="preserve" data-imageid="mobile-testing-33" imageName="Mobile Testing" class="illustrations_image">
<style type="text/css">
	.st0_mobile-testing-33{fill:#FFFFFF;}
	.st1_mobile-testing-33{fill:#D1D3D4;}
	.st2_mobile-testing-33{fill:none;}
	.st3_mobile-testing-33{fill:#231F20;}
	.st4_mobile-testing-33{fill:#68E1FD;}
</style>
<g id="Smartphone_mobile-testing-33">
	<path class="st0_mobile-testing-33" d="M19.3,349.5v10.9c0,3.1,4.4,5.7,6.5,6.2s270.4,80.2,281.2,80s14.5-1.5,16.8-3s147.9-84.4,151.7-86.7&#10;&#9;&#9;s4.1-3.9,4.2-5.8c0.4-5.1,1.7-16.7,1.7-16.7L19.3,349.5z"/>
	<path class="st1_mobile-testing-33" d="M306.9,447.3c-9.4,0-176.8-49.1-275.9-78.4l-5.4-1.6c-2.5-0.7-7-3.5-7-7v-10.9c0-0.4,0.3-0.7,0.7-0.8&#10;&#9;&#9;l462.2-15.1c0.2,0,0.4,0.1,0.6,0.2c0.1,0.2,0.2,0.4,0.2,0.6c0,0.1-1.4,11.6-1.7,16.6c-0.2,2.1-0.6,3.9-4.6,6.4&#10;&#9;&#9;c-2,1.2-41.4,23.7-79.5,45.5c-35,20-71.1,40.6-72.2,41.3c-2.2,1.4-5.8,2.8-17.2,3.1H306.9z M20.1,350.2v10.1c0,2.6,3.8,4.9,6,5.5&#10;&#9;&#9;l5.4,1.6c168.4,49.8,268.7,78.3,275.5,78.3h0c11.1-0.3,14.4-1.5,16.5-2.9c1.1-0.7,35.7-20.5,72.3-41.3&#10;&#9;&#9;c38.1-21.7,77.5-44.2,79.4-45.4c3.7-2.3,3.8-3.6,3.9-5.2c0.3-4.3,1.3-13.1,1.6-15.8L20.1,350.2z"/>
	<path class="st0_mobile-testing-33" d="M175.5,279.3L22.2,346.6c-3.3,1.4-2.7,5.2,0.9,6.1l279.5,71.4c6.4,1.5,13.2,0.7,19.1-2.4l158-84&#10;&#9;&#9;c3-1.7,2.1-5.3-1.5-6l-299.5-52.8C177.5,278.7,176.4,278.8,175.5,279.3z"/>
	<path class="st1_mobile-testing-33" d="M309,425.5c-2.2,0-4.4-0.3-6.6-0.8L22.8,353.4c-1.9-0.3-3.3-1.8-3.6-3.6c-0.1-1.7,1-3.3,2.6-3.9l153.3-67.3&#10;&#9;&#9;c1.1-0.5,2.3-0.6,3.5-0.4L478.2,331c1.9,0.2,3.5,1.6,3.9,3.5c0.2,1.6-0.7,3.2-2.2,3.9l-158,84C317.9,424.5,313.5,425.6,309,425.5z&#10;&#9;&#9; M177.6,279.5c-0.6,0-1.2,0.1-1.8,0.4l0,0L22.5,347.3c-1,0.3-1.7,1.3-1.7,2.4c0.2,1.2,1.2,2.1,2.5,2.3l279.5,71.4&#10;&#9;&#9;c6.2,1.5,12.8,0.7,18.5-2.3l158-84c0.9-0.4,1.5-1.3,1.4-2.4c-0.3-1.2-1.4-2.1-2.7-2.2l-299.6-52.8&#10;&#9;&#9;C178.1,279.6,177.9,279.6,177.6,279.5L177.6,279.5z M175.5,279.2L175.5,279.2z"/>
	<polygon class="st0_mobile-testing-33" points="446.2,336.4 305.2,409.3 62.4,351.3 187.6,292.9 &#9;"/>
	<path class="st1_mobile-testing-33" d="M305.2,410.1c-0.1,0-0.1,0-0.2,0L62.2,352c-0.3-0.1-0.5-0.3-0.6-0.6c0-0.3,0.1-0.6,0.4-0.8l125.2-58.4&#10;&#9;&#9;c0.1-0.1,0.3-0.1,0.4-0.1l258.6,43.5c0.3,0.1,0.6,0.3,0.6,0.6c0,0.3-0.1,0.6-0.4,0.8l-141,73C305.4,410,305.3,410.1,305.2,410.1z&#10;&#9;&#9; M64.7,351.1l240.4,57.5l138.7-71.8l-256.1-43.1L64.7,351.1z"/>
	<line class="st2_mobile-testing-33" x1="416.9" y1="360" x2="377.6" y2="380.7"/>
	<path class="st1_mobile-testing-33" d="M377.6,381.4c-0.4,0-0.8-0.3-0.8-0.7c0-0.3,0.2-0.6,0.4-0.7l39.3-20.6c0.4-0.2,0.8-0.1,1,0.3&#10;&#9;&#9;c0.2,0.4,0.1,0.8-0.3,1L378,381.3C377.9,381.4,377.7,381.4,377.6,381.4z"/>
	<ellipse class="st1_mobile-testing-33" cx="107.1" cy="318.3" rx="8.9" ry="3.2"/>
	<line class="st2_mobile-testing-33" x1="308.5" y1="428.1" x2="309.6" y2="443.3"/>
	<path class="st1_mobile-testing-33" d="M309.6,444c-0.4,0-0.7-0.3-0.7-0.7l-1.1-15.2c0-0.4,0.3-0.8,0.7-0.8c0,0,0,0,0,0c0.4,0,0.8,0.3,0.8,0.7&#10;&#9;&#9;c0,0,0,0,0,0l1.1,15.2C310.4,443.6,310.1,444,309.6,444L309.6,444z"/>
</g>
<g id="character_female_2_mobile-testing-33">
	<path class="st0_mobile-testing-33" d="M291.2,121.7c-0.6-0.4-1.6-0.8-2-0.2s0,1.2,0.4,1.7c2,2.5,4.2,4.8,6.5,6.9c0.3,0.4,0.8,0.6,1.2,0.6&#10;&#9;&#9;c0.8,0,1.1-1,1-1.7C297.9,125.3,294.1,123.6,291.2,121.7z"/>
	<path class="st3_mobile-testing-33" d="M297.3,131.5c-0.6-0.1-1.2-0.3-1.7-0.8c-2.4-2.1-4.6-4.5-6.6-7c-1-1.3-0.7-2.2-0.4-2.6c0.6-0.8,1.8-0.8,3,0&#10;&#9;&#9;l0,0c0.4,0.3,0.9,0.6,1.4,0.9c2.7,1.7,5.7,3.5,6.1,7c0.1,0.7-0.1,1.4-0.5,1.9C298.3,131.3,297.8,131.5,297.3,131.5L297.3,131.5z&#10;&#9;&#9; M289.8,121.9L289.8,121.9c-0.1,0-0.1,0.3,0.3,0.8c1.9,2.5,4.1,4.7,6.4,6.8c0.1,0.1,0.5,0.4,0.7,0.4c0,0,0.1,0,0.2-0.1&#10;&#9;&#9;c0.2-0.2,0.2-0.5,0.2-0.8c-0.4-2.8-3-4.4-5.5-5.9c-0.5-0.3-1-0.6-1.4-0.9C290.5,122.1,290.2,122,289.8,121.9z"/>
	<path class="st0_mobile-testing-33" d="M315.5,145.8l-3.8-4.1c0,0,0.2-5.8-0.6-7.1s-14-9.9-13.9-9.6s0.9,11.4,0.9,11.4l14.1,17.2L315.5,145.8z"/>
	<path class="st3_mobile-testing-33" d="M312.2,154.4c-0.2,0-0.4-0.1-0.6-0.3l-14.1-17.2c-0.1-0.1-0.2-0.3-0.2-0.4c-0.3-4.1-0.8-10.7-0.9-11.2&#10;&#9;&#9;c-0.1-0.4,0.1-0.7,0.4-0.9c0.4-0.2,0.6-0.3,7.5,4.4c4.5,3,7,4.9,7.4,5.5c0.8,1.2,0.8,5.5,0.7,7.2l3.6,3.9c0.2,0.2,0.3,0.5,0.1,0.8&#10;&#9;&#9;l-3.3,7.8c-0.1,0.2-0.3,0.4-0.6,0.4L312.2,154.4z M298.8,136.1l13.2,16.1l2.6-6.2l-3.5-3.8c-0.1-0.1-0.2-0.3-0.2-0.5&#10;&#9;&#9;c0.1-2.7-0.1-6-0.5-6.6c-0.7-0.9-9.2-6.7-12.4-8.7C298.2,127.8,298.4,130.6,298.8,136.1z"/>
	<path class="st4_mobile-testing-33 targetColor" d="M346.9,136.4L334,162.2l-17.8-19.6l-8.6,13.2c0,0,30.3,42.1,36.9,38.8s19.2-33.7,19.2-33.7L346.9,136.4z" style="fill: rgb(104, 225, 253);"/>
	<path class="st0_mobile-testing-33" d="M369.7,231.6l-31.6,95.6c0,0-31.1-4.2-31.5-5.5s19.6-5.9,19.6-5.9l25.4-92.2"/>
	<path class="st3_mobile-testing-33" d="M338.1,327.9H338c-31.6-4.3-32-5.5-32.1-6c-0.1-0.2,0-0.5,0.1-0.7c0.8-1.5,12.4-4.4,19.6-6.1l25.2-91.8&#10;&#9;&#9;c0.1-0.4,0.5-0.6,0.9-0.5c0.4,0.1,0.6,0.5,0.5,0.9c0,0,0,0,0,0l-25.3,92.2c-0.1,0.3-0.3,0.5-0.5,0.5c-7.5,1.8-15.6,3.9-18.3,5&#10;&#9;&#9;c4.1,1.1,19.4,3.4,29.5,4.8l31.4-95c0.1-0.4,0.5-0.6,0.9-0.5c0.4,0.1,0.6,0.5,0.5,0.9c0,0,0,0.1,0,0.1l-31.6,95.6&#10;&#9;&#9;C338.7,327.6,338.5,327.9,338.1,327.9z"/>
	<path class="st0_mobile-testing-33" d="M404,224.4l6.6,107.5c0,0-31.3,6.8-31.4,6s16.9-12.9,16.9-12.9l-12.8-99.3"/>
	<path class="st3_mobile-testing-33" d="M379.4,338.6c-0.5,0-0.6-0.1-0.6-0.1c-0.2-0.1-0.3-0.3-0.3-0.5c-0.1-0.6-0.2-1.2,16.8-13.3l-12.7-98.8&#10;&#9;&#9;c0-0.4,0.3-0.8,0.7-0.8c0.4,0,0.7,0.2,0.8,0.6l12.8,99.3c0,0.3-0.1,0.6-0.3,0.7c-6.1,4.3-12.7,9.2-15.4,11.4&#10;&#9;&#9;c5-0.7,19.1-3.7,28.7-5.7l-6.5-106.9c0-0.4,0.3-0.8,0.7-0.8c0.4,0,0.8,0.3,0.8,0.7l6.6,107.5c0,0.4-0.2,0.7-0.6,0.8&#10;&#9;&#9;C386.9,337.8,381,338.6,379.4,338.6z"/>
	<path class="st3_mobile-testing-33" d="M319.6,315.3l4.2,6.4l16.5,2l-1.6,6.3c0,0-36.3-4.5-37.1-7.9S319.6,315.3,319.6,315.3z"/>
	<path class="st4_mobile-testing-33 targetColor" d="M362.3,125.2c0,0-11.4,2.7-14.8,9.8s0.7,44.8,0.7,44.8l50.6,2.2c0,0,5.2-27.8,2.6-39.8&#10;&#9;&#9;S388.7,114.3,362.3,125.2z" style="fill: rgb(104, 225, 253);"/>
	<path class="st0_mobile-testing-33" d="M362.5,120l0.4,11c0,0,1.4,6.1,8,4c4-1.3,7.1-4.3,8.6-8.2l-1.5-19c-1.2-0.7-2.2-1.8-2.7-3.1&#10;&#9;&#9;c-0.4-1-0.6-2-0.6-3.1c0-0.4-0.1-2.8,0.4-3c-2.5,1-5.4,0.6-7.6-0.9c-1.2-0.9-2.2-2-3.1-3.2c-0.7-0.7-1.2-1.6-1.2-2.7&#10;&#9;&#9;c-1.8,1.8-3.6,3.7-5.3,5.7c-0.9,1-1.7,2.2-2.4,3.4c-1,2.2-0.9,4.8-0.8,7.2c0.1,2.8,0.5,5.5,1.1,8.2&#10;&#9;&#9;C357.1,121.5,362.5,120,362.5,120z"/>
	<path class="st3_mobile-testing-33" d="M368.2,136.1c-1,0-2.1-0.2-3-0.8c-1.5-1-2.6-2.5-3.1-4.2c0,0,0-0.1,0-0.1l-0.3-10.1c-1.4,0.2-2.9,0-4.1-0.7&#10;&#9;&#9;c-1.3-0.8-2.2-2.1-2.5-3.7c-0.6-2.8-1-5.6-1.2-8.4c-0.1-2.3-0.3-5.2,0.8-7.5c0.7-1.3,1.5-2.5,2.5-3.6c1.7-2,3.5-3.9,5.3-5.7&#10;&#9;&#9;c0.2-0.2,0.6-0.3,0.8-0.2c0.3,0.1,0.5,0.4,0.4,0.8c0.1,0.8,0.4,1.5,1,2.1c0.8,1.1,1.9,2.2,3,3c2,1.4,4.6,1.7,6.9,0.8&#10;&#9;&#9;c0.4-0.1,0.8,0.1,1,0.5c0.1,0.3,0,0.6-0.2,0.8c-0.1,0.8-0.2,1.6-0.1,2.4c0,1,0.2,1.9,0.6,2.8c0.4,1.1,1.2,2.1,2.3,2.7&#10;&#9;&#9;c0.2,0.1,0.4,0.4,0.4,0.6l1.5,19c0,0.1,0,0.2,0,0.3c-1.5,4.1-4.9,7.3-9.1,8.7C370.2,135.9,369.2,136.1,368.2,136.1z M363.6,130.9&#10;&#9;&#9;c0.4,1.3,1.2,2.5,2.4,3.2c1.5,0.7,3.2,0.8,4.6,0.1c3.7-1.2,6.6-4,8-7.6l-1.5-18.5c-1.2-0.8-2.2-1.9-2.7-3.3&#10;&#9;&#9;c-0.4-1.1-0.7-2.2-0.7-3.3c0-0.6,0-1.3,0-1.9c-2.4,0.5-4.9,0-6.9-1.4c-1.3-0.9-2.4-2.1-3.3-3.3c-0.4-0.5-0.7-1-1-1.6&#10;&#9;&#9;c-1.5,1.5-2.9,3-4.2,4.6c-0.9,1-1.7,2.1-2.3,3.3c-1,2-0.8,4.5-0.7,6.8c0.1,2.7,0.5,5.5,1.1,8.1c0.2,1.1,0.9,2.1,1.8,2.7&#10;&#9;&#9;c1.2,0.6,2.6,0.7,3.9,0.4c0.2-0.1,0.5,0,0.6,0.1c0.2,0.1,0.3,0.3,0.3,0.6L363.6,130.9z"/>
	<path class="st0_mobile-testing-33" d="M373.9,106.9c0.1-0.8,0.5-1.6,1.1-2.2c0.6-0.5,1.3-0.9,2-1.2c0.4-0.2,0.8-0.3,1.2-0.3c0.3,0,0.6,0.1,0.9,0.2&#10;&#9;&#9;c0.7,0.3,1.2,0.8,1.5,1.4c0.2,0.5,0.3,1.1,0.2,1.7c0,0.6-0.1,1.2-0.3,1.8c-0.8,2.4-3.5,3.7-5.9,2.9c0,0-0.1,0-0.1,0"/>
	<path class="st3_mobile-testing-33" d="M376.1,112.2c-0.6,0-1.2-0.1-1.8-0.3c-0.4-0.1-0.6-0.5-0.5-0.9c0.1-0.4,0.5-0.6,0.9-0.5c0,0,0.1,0,0.1,0&#10;&#9;&#9;c2.1,0.7,4.3-0.4,5-2.4c0,0,0,0,0,0c0.2-0.5,0.3-1.1,0.3-1.6c0.1-0.4,0-0.9-0.1-1.3c-0.3-0.5-0.7-0.8-1.2-1&#10;&#9;&#9;c-0.2-0.1-0.4-0.1-0.6-0.2c-0.3,0-0.6,0.1-0.9,0.2c-0.6,0.2-1.2,0.6-1.8,1c-0.5,0.5-0.8,1.1-0.9,1.7c-0.1,0.4-0.5,0.7-0.9,0.6&#10;&#9;&#9;c0,0,0,0,0,0c-0.4-0.1-0.7-0.4-0.6-0.8c0,0,0,0,0,0c0.2-1,0.6-1.9,1.4-2.6c0.6-0.6,1.4-1,2.2-1.3c0.5-0.2,1-0.4,1.5-0.4&#10;&#9;&#9;c0.4,0,0.8,0.1,1.1,0.3c0.8,0.3,1.5,1,1.9,1.8c0.2,0.6,0.3,1.3,0.3,2c0,0.7-0.2,1.4-0.4,2C380.5,110.7,378.4,112.2,376.1,112.2&#10;&#9;&#9;L376.1,112.2z"/>
	<path class="st3_mobile-testing-33" d="M362.7,125.4c0,0,4.5,0,7.2-3.1c1.6-1.6,2.4-3.8,2.2-6.1c0,0-5.2,4.3-9.7,3.7L362.7,125.4z"/>
	<path class="st3_mobile-testing-33" d="M362.7,126.1L362.7,126.1c-0.4,0-0.7-0.3-0.8-0.7l-0.3-5.4c0-0.2,0.1-0.4,0.2-0.6c0.2-0.2,0.4-0.2,0.6-0.2&#10;&#9;&#9;c4.1,0.5,9.1-3.5,9.1-3.6c0.2-0.2,0.5-0.2,0.7-0.1c0.2,0.1,0.4,0.3,0.5,0.6c0.2,2.5-0.6,4.9-2.4,6.7&#10;&#9;&#9;C367.6,126.1,363,126.1,362.7,126.1z M363.2,120.8l0.2,3.8c2.3-0.2,4.4-1.2,6-2.8c1.1-1.1,1.8-2.6,2-4.1&#10;&#9;&#9;C369.7,118.9,366.4,120.8,363.2,120.8L363.2,120.8z"/>
	<path class="st0_mobile-testing-33" d="M363,103.8c0,0-3.3,5.4-2.5,6.3s3.2,0.2,3.2,0.2"/>
	<path class="st3_mobile-testing-33" d="M362.1,111.3c-0.7,0-1.4-0.2-2-0.7c-0.9-0.9-0.1-3.3,2.4-7.2c0.2-0.3,0.7-0.4,1-0.2c0.3,0.2,0.4,0.7,0.2,1&#10;&#9;&#9;c-1.4,2.3-2.5,4.8-2.5,5.4c0.8,0.2,1.6,0.2,2.4-0.1c0.4-0.1,0.8,0.1,1,0.5c0.1,0.4-0.1,0.8-0.5,1l0,0&#10;&#9;&#9;C363.4,111.2,362.7,111.3,362.1,111.3z M361.2,109.7L361.2,109.7z"/>
	
		<ellipse transform="matrix(0.1733 -0.9849 0.9849 0.1733 202.7715 449.1517)" class="st3_mobile-testing-33" cx="368.9" cy="103.8" rx="1.2" ry="0.9"/>
	
		<ellipse transform="matrix(0.1733 -0.9849 0.9849 0.1733 192.2388 439.9098)" class="st3_mobile-testing-33" cx="358.2" cy="105.4" rx="1.2" ry="0.9"/>
	<path class="st0_mobile-testing-33" d="M359.6,113.1c0,0,3.4,4.6,8.8-0.2"/>
	<path class="st3_mobile-testing-33" d="M363.6,115.8c-0.2,0-0.4,0-0.6,0c-1.6-0.2-3-1-4-2.3c-0.2-0.3-0.2-0.8,0.2-1s0.8-0.2,1,0.2&#10;&#9;&#9;c0.8,0.9,1.8,1.5,3,1.7c1.5,0.2,3-0.5,4.7-1.9c0.3-0.3,0.8-0.2,1.1,0.1c0.3,0.3,0.2,0.8-0.1,1.1l0,0&#10;&#9;&#9;C367.5,114.9,365.6,115.7,363.6,115.8z"/>
	<path class="st3_mobile-testing-33" d="M393.6,181.5c0,0,12.2,13.6,15.6,28.6c7.1,31.5,5.2,92.9,5.2,92.9l-91.3-15.4L346,179L393.6,181.5z"/>
	<path class="st3_mobile-testing-33" d="M413.5,333.4l-1-6.5l-19.1,5.3l-3.7-4.9c0,0-14,10.1-12.1,12.3S400.3,337.8,413.5,333.4z"/>
	<path class="st0_mobile-testing-33" d="M402.7,210.9c0.2,0.7,2.4,5.6,2.1,9.1s-1.8,10.6-0.8,10.8s3.1,0.3,3.8-7.6c0,0,1.5,15.7,3.6,12.4&#10;&#9;&#9;s-0.7-11.7-0.7-11.7s2.5,11.4,4,10.6s-0.7-10.8-0.7-10.8s1.6,10.9,3.5,9.8s-0.2-10.8-0.2-10.8s1.5,12.6,3.5,10.3s-4-24.5-4-24.5"/>
	<path class="st3_mobile-testing-33" d="M410.8,236.7c-0.1,0-0.2,0-0.3,0c-1.4-0.3-2.3-4.1-2.9-8.4c-0.3,1-0.8,1.9-1.6,2.6c-0.6,0.5-1.4,0.7-2.2,0.5&#10;&#9;&#9;c-1.3-0.2-1.1-2.1-0.3-7.8c0.2-1.4,0.4-2.8,0.5-3.8c0.3-2.8-1.3-6.9-1.9-8.2c-0.1-0.2-0.2-0.4-0.2-0.5c-0.2-0.4,0-0.8,0.4-1&#10;&#9;&#9;c0.4-0.2,0.8,0,1,0.4c0,0,0,0.1,0,0.1l0.2,0.4c0.6,1.6,2.3,5.7,2,8.9c-0.1,1.1-0.3,2.4-0.5,3.8c-0.4,2-0.6,4.1-0.6,6.1&#10;&#9;&#9;c0.3,0,0.5-0.1,0.7-0.2c0.5-0.4,1.5-1.9,1.9-6.7c0-0.4,0.4-0.7,0.8-0.7l0,0c0.4,0,0.7,0.3,0.8,0.7c0.5,5,1.5,10.8,2.3,12&#10;&#9;&#9;c0.9-1.4,0.8-4,0.4-6.4c-0.5-1.6-0.9-3.4-1.1-4.7c-0.1-0.4,0.1-0.8,0.5-0.9c0.4-0.1,0.8,0.1,0.9,0.5c0.5,1.5,0.9,3.1,1.1,4.6&#10;&#9;&#9;c0.4,1.8,1.1,3.6,1.9,5.2c0.1-1.8,0-3.7-0.4-5.5c-0.4-1.6-0.6-3.1-0.8-4.2c-0.1-0.4,0.2-0.8,0.6-0.9c0.4-0.1,0.8,0.2,0.9,0.6&#10;&#9;&#9;c0.3,1.4,0.6,2.9,0.8,4.3c0.3,1.7,0.8,3.4,1.6,4.9c0.4-0.5,0.4-2.4,0.2-4.8c-0.4-1.8-0.6-3.6-0.8-5.1c-0.1-0.4,0.2-0.8,0.6-0.8&#10;&#9;&#9;c0.4-0.1,0.8,0.2,0.8,0.6c0.3,1.2,0.6,3.2,0.8,5.2c0.2,1.6,0.7,3.2,1.4,4.6c0.9-2-1.5-13.6-4.2-23.7c-0.1-0.4,0.1-0.8,0.5-0.9&#10;&#9;&#9;c0.4-0.1,0.8,0.1,0.9,0.5c0,0,0,0,0,0c1.4,5.3,5.9,22.7,3.8,25.2c-0.3,0.4-0.9,0.6-1.4,0.5c-0.6-0.3-1-0.7-1.2-1.3&#10;&#9;&#9;c-0.1,0.6-0.4,1.1-0.9,1.5c-0.4,0.2-0.8,0.3-1.2,0.1c-0.3-0.2-0.6-0.5-0.8-0.8c0,0.7-0.3,1.3-0.8,1.8c-0.3,0.2-0.7,0.2-1,0&#10;&#9;&#9;c-0.6-0.4-1-0.9-1.2-1.6c-0.1,0.9-0.4,1.7-0.8,2.4C411.8,236.4,411.4,236.7,410.8,236.7z"/>
	<path class="st4_mobile-testing-33 targetColor" d="M398.5,133.6l25.8,74.2l-24.8,6.9c0,0-11.6-54.2-11.9-58.9S398.5,133.6,398.5,133.6z" style="fill: rgb(104, 225, 253);"/>
	<path class="st3_mobile-testing-33" d="M399.7,132.8c-0.4,0-0.8-0.3-0.8-0.7c0-0.2,0.1-0.4,0.2-0.5c2.4-2.8,1.9-7.1,0.1-9.9s-4.6-4.8-8.8-6.5&#10;&#9;&#9;c-2.5-1-4.7-1.7-7.1-1.3c-0.3,0-0.7-0.1-0.8-0.4c-0.1-0.3-0.1-0.7,0.2-0.9c4.7-4.1,6.8-10.3,5.2-15.5c-1.3-4.4-5.5-8.2-10.6-9.5&#10;&#9;&#9;c-4.4-1.2-9.5-0.8-14.9,1.1c-0.2,0.1-0.5,0-0.7-0.1c-4.2-3.4-10.3-2.9-13.7,1.3c-3.4,4.2-2.9,10.3,1.3,13.7c1,0.8,2.1,1.4,3.3,1.8&#10;&#9;&#9;c0.4,0.2,0.6,0.6,0.4,1c-0.1,0.3-0.5,0.5-0.8,0.5c-5.9-1.8-9.3-8.1-7.5-14.1c1.8-5.9,8.1-9.3,14.1-7.5c1.3,0.4,2.5,1,3.6,1.8&#10;&#9;&#9;c4.9-1.9,10.3-2.2,15.4-1c5.7,1.5,10.1,5.6,11.6,10.6s-0.1,11.1-4.2,15.6c2,0.1,4,0.7,5.9,1.5c4.5,1.8,7.6,4.2,9.5,7.1&#10;&#9;&#9;c2.1,3.3,2.7,8.4-0.2,11.7C400.1,132.8,399.9,132.8,399.7,132.8z"/>
	<path class="st3_mobile-testing-33" d="M378.2,103.2c0,0-0.6-14.6-8.4-17c2.6-0.3,5.2-0.1,7.7,0.5C377.6,86.8,382.6,96.4,378.2,103.2z"/>
	<path class="st3_mobile-testing-33" d="M378.2,104c-0.1,0-0.1,0-0.2,0c-0.3-0.1-0.5-0.4-0.5-0.7c0-0.1-0.6-14.1-7.8-16.3c-0.3-0.1-0.6-0.4-0.5-0.8&#10;&#9;&#9;c0-0.4,0.3-0.6,0.6-0.7c2.7-0.3,5.4-0.2,8,0.6c0.2,0.1,0.3,0.2,0.4,0.4c0.2,0.4,5.2,10,0.7,17.2C378.7,103.9,378.5,104,378.2,104z&#10;&#9;&#9; M372.7,86.9c4.1,3.1,5.5,9.7,6,13.5c1.7-5.4-1.1-11.6-1.7-13C375.6,87,374.1,86.9,372.7,86.9L372.7,86.9z"/>
	<path class="st3_mobile-testing-33" d="M346.6,177.2h-0.2c-0.4-0.1-0.7-0.5-0.6-0.9l8.3-36.1c0.1-0.4,0.5-0.7,0.9-0.6c0,0,0,0,0,0&#10;&#9;&#9;c0.4,0.1,0.7,0.5,0.6,0.9l-8.3,36.1C347.2,176.9,346.9,177.2,346.6,177.2z"/>
	<path class="st3_mobile-testing-33" d="M392.1,180.1c-0.4,0-0.7-0.3-0.7-0.6l-7.3-36.2c-0.1-0.4,0.1-0.8,0.5-0.9c0.4-0.1,0.8,0.1,0.9,0.5&#10;&#9;&#9;c0,0,0,0,0,0.1l7.3,36.2c0.1,0.4-0.2,0.8-0.6,0.9L392.1,180.1z"/>
	<path class="st3_mobile-testing-33" d="M340.1,168.5c-0.2,0-0.4-0.1-0.5-0.2l-23.8-25.1c-0.2-0.3-0.1-0.8,0.2-1c0.3-0.2,0.6-0.2,0.9,0l23.8,25.1&#10;&#9;&#9;c0.3,0.3,0.3,0.8-0.1,1.1C340.4,168.4,340.2,168.5,340.1,168.5L340.1,168.5z"/>
	<polygon class="st3_mobile-testing-33" points="311.5,139.9 297.9,139.9 284.1,110.3 297.8,110.3 &#9;"/>
	<path class="st0_mobile-testing-33" d="M311.7,141.7c0,0,0.5-8,0.1-8.7s-5-6-5.5-4.9s0.3,4.2,1,5.4s2.7,4.3,2.7,4.3"/>
	<path class="st3_mobile-testing-33" d="M311.7,142.4L311.7,142.4c-0.5,0-0.8-0.4-0.8-0.8c0,0,0,0,0,0c0.2-2.8,0.3-5.5,0.1-8.3c-1.2-1.6-2.6-3-4.1-4.4&#10;&#9;&#9;c0,1.4,0.4,2.9,1,4.2c0.6,1.1,2.7,4.2,2.7,4.3c0.2,0.3,0.1,0.8-0.2,1c-0.3,0.2-0.8,0.1-1-0.2c-0.1-0.1-2.1-3.2-2.8-4.3&#10;&#9;&#9;s-1.6-4.5-1-6c0.1-0.4,0.5-0.6,0.8-0.7c1.7-0.2,5.9,5.3,6,5.4s0.5,0.9,0,9.1C312.4,142.1,312.1,142.4,311.7,142.4z"/>
	<path class="st0_mobile-testing-33" d="M292.3,129.8c0.1-0.9,0.8-1.7,1.8-1.9c0.9-0.1,1.9,0.3,2.5,1.1c1.6,1.7,3.3,6.8,0.3,8.1&#10;&#9;&#9;C293.5,138.3,291.9,132,292.3,129.8z"/>
	<path class="st3_mobile-testing-33" d="M295.9,137.9c-0.7,0-1.4-0.3-1.9-0.7c-1.9-1.6-2.8-5.7-2.5-7.6l0,0c0.2-1.3,1.1-2.3,2.4-2.5&#10;&#9;&#9;c1.2-0.1,2.4,0.4,3.1,1.3c1.6,1.9,2.4,4.3,2.1,6.8c-0.2,1.1-1,2.1-2.1,2.5C296.7,137.8,296.3,137.9,295.9,137.9z M293,129.9&#10;&#9;&#9;c-0.3,1.5,0.5,4.9,2,6.1c0.4,0.4,1,0.5,1.5,0.2c0.6-0.2,1.1-0.8,1.2-1.4c0.2-2-0.4-3.9-1.7-5.4c-0.3-0.3-1-1-1.8-0.9&#10;&#9;&#9;C293.6,128.8,293.2,129.3,293,129.9L293,129.9z"/>
	<path class="st3_mobile-testing-33" d="M343.8,134.1c-0.3,0-0.5-0.1-0.6-0.4c-3.8-6.7-1.5-15.3,5.3-19.1c1-0.6,2-1,3.1-1.3c0.4-0.1,0.8,0.1,0.9,0.5&#10;&#9;&#9;s-0.1,0.8-0.5,0.9c-6.6,1.8-10.5,8.7-8.7,15.3c0.3,1,0.7,2,1.2,2.9c0.2,0.4,0.1,0.8-0.3,1C344,134,343.9,134.1,343.8,134.1z"/>
	<path class="st0_mobile-testing-33" d="M347.3,203.3c-0.4,0-0.7-0.4-0.7-0.8c0-0.1,0-0.2,0-0.2l7.9-19c0.2-0.4,0.6-0.6,1-0.4c0.3,0.1,0.4,0.4,0.5,0.6&#10;&#9;&#9;l0.9,11.5c0,0.4-0.3,0.7-0.8,0.7c-0.4,0-0.7-0.3-0.7-0.6l-0.6-8.4l-6.8,16.1C347.9,203.1,347.6,203.3,347.3,203.3z"/>
</g>
<g id="character_female_1_mobile-testing-33">
	<path class="st0_mobile-testing-33" d="M124.6,276.5l-0.8,63.4c0,0,31,5.2,31.7,4.1s-16.9-11.5-16.9-11.5l2.5-52.2"/>
	<path class="st3_mobile-testing-33" d="M154.4,344.8c-2.8,0-10.3-0.8-30.7-4.2c-0.4-0.1-0.6-0.4-0.6-0.8l0.8-63.3c0-0.4,0.3-0.7,0.8-0.8l0,0&#10;&#9;&#9;c0.4,0,0.7,0.3,0.7,0.8c0,0,0,0,0,0l-0.8,62.7c10.1,1.7,25.4,4,29.6,4.2c-2.2-1.9-9.3-6.4-16-10.2c-0.2-0.1-0.4-0.4-0.4-0.7&#10;&#9;&#9;l2.5-52.2c0-0.4,0.4-0.7,0.8-0.7c0.4,0,0.7,0.4,0.7,0.8c0,0,0,0,0,0l-2.5,51.8c6.4,3.7,16.6,10,16.9,11.6c0.1,0.3,0,0.5-0.1,0.7&#10;&#9;&#9;C156.1,344.6,155.9,344.8,154.4,344.8z"/>
	<path class="st3_mobile-testing-33" d="M145.1,334.1l-5.9,4.9l-16.3-3l-0.3,6.5c0,0,36,6.5,37.8,3.5S145.1,334.1,145.1,334.1z"/>
	<path class="st0_mobile-testing-33" d="M155.3,281l0.9,59.8c0,0,30.9,5.2,31.7,4.1S171,333.4,171,333.4l4.1-54.7"/>
	<path class="st3_mobile-testing-33" d="M186.7,345.7c-2.8,0-10.3-0.8-30.7-4.2c-0.4-0.1-0.6-0.4-0.6-0.7l-0.9-59.8c0-0.4,0.3-0.7,0.7-0.8l0,0&#10;&#9;&#9;c0.4,0,0.7,0.3,0.8,0.7l0.9,59.1c10.1,1.7,25.4,4.1,29.6,4.2c-2.2-1.9-9.3-6.4-16-10.2c-0.2-0.1-0.4-0.4-0.4-0.7l4.1-54.7&#10;&#9;&#9;c0-0.4,0.4-0.7,0.8-0.7s0.7,0.4,0.7,0.8l-4,54.2c6.4,3.7,16.6,10,16.9,11.6c0.1,0.3,0,0.5-0.1,0.7&#10;&#9;&#9;C188.4,345.5,188.3,345.7,186.7,345.7z"/>
	<path class="st3_mobile-testing-33" d="M177.4,335l-6,4.9l-16.3-3l-0.3,6.5c0,0,36,6.5,37.8,3.5S177.4,335,177.4,335z"/>
	<path class="st3_mobile-testing-33" d="M115.3,187.7c-5.5,37.2,3.1,123.6,3.1,123.6l26.4-0.6l7.6-82.5l0.5,82.4l23.1,1c0,0,9.6-57.6,8.3-91.6&#10;&#9;&#9;s-8.2-38.2-8.2-38.2L115.3,187.7z"/>
	<path class="st4_mobile-testing-33 targetColor" d="M143.1,122.7c0,0-17.5-0.1-25.4,10.6s-8.3,16.9-8.3,16.9l15.8,5l-2.1,32l54.4-4l-1-28.6l10-3.4&#10;&#9;&#9;c0,0-5.6-25.1-28.3-26.8S143.1,122.7,143.1,122.7z" style="fill: rgb(104, 225, 253);"/>
	<path class="st0_mobile-testing-33" d="M159.3,115.3l-0.6,10.9c0,0-1.4,6.1-8,4c-4-1.3-7.1-4.3-8.6-8.2c0,0,2-26.7,2.1-28.7c1.1,0.6,4.2,2,5.4,1.6&#10;&#9;&#9;s1.6-4.1,1.8-5.3c0.9,1.6,1.5,3.4,1.8,5.3l4.5,0.4c0.7-1.6,1-3.3,1-5c0.9,1.5,1.5,3.2,1.6,5c1.3,0.1,6.1-0.4,6.8,0.6&#10;&#9;&#9;c1.1,1.6,1.3,12.2-1.8,15.8S159.3,115.3,159.3,115.3z"/>
	<path class="st3_mobile-testing-33" d="M153.3,131.4c-1,0-1.9-0.2-2.9-0.5c-4.2-1.4-7.5-4.6-9.1-8.7c0-0.1,0-0.2,0-0.3c0.1-1.1,2-26.8,2.1-28.7&#10;&#9;&#9;c0-0.4,0.4-0.7,0.8-0.7c0.1,0,0.2,0,0.3,0.1c1.7,0.9,4.1,1.8,4.8,1.5c0.2-0.1,0.7-0.8,1.2-4.2l0.1-0.5c0-0.3,0.3-0.6,0.6-0.6&#10;&#9;&#9;c0.3-0.1,0.6,0.1,0.8,0.4c0.9,1.6,1.5,3.2,1.8,5l3.4,0.3c0.5-1.3,0.8-2.8,0.8-4.2c0-0.3,0.2-0.6,0.6-0.7c0.3-0.1,0.7,0,0.9,0.3&#10;&#9;&#9;c0.8,1.4,1.3,3,1.5,4.6h0.8c3-0.1,5.3-0.1,6,1c1.3,1.9,1.4,12.9-1.9,16.7c-1.5,1.9-3.6,3.2-6,3.8c-0.1,1-0.2,3.6-0.6,10.3&#10;&#9;&#9;c0,0,0,0.1,0,0.1c-0.4,1.8-1.5,3.3-3.1,4.2C155.4,131.2,154.3,131.4,153.3,131.4z M142.9,121.9c1.4,3.6,4.4,6.4,8.1,7.6&#10;&#9;&#9;c1.5,0.6,3.2,0.6,4.6-0.1c1.2-0.7,2-1.9,2.4-3.2c0.1-0.9,0.6-10.7,0.6-10.9c0-0.4,0.3-0.7,0.7-0.7c0.1,0,2.8-0.2,5.6-3.4&#10;&#9;&#9;s2.6-13.6,1.8-14.9c-0.5-0.5-3.6-0.4-4.7-0.3c-0.7,0-1.2,0-1.6,0c-0.4,0-0.7-0.3-0.7-0.7c-0.1-0.7-0.2-1.5-0.4-2.2&#10;&#9;&#9;c-0.2,0.8-0.4,1.6-0.8,2.4c-0.1,0.3-0.4,0.5-0.8,0.4l-4.5-0.4c-0.4,0-0.6-0.3-0.7-0.7c-0.1-1-0.4-1.9-0.7-2.9&#10;&#9;&#9;c-0.4,1.7-0.9,3.2-1.9,3.5c-1.3,0.4-3.6-0.5-5-1.1C144.5,99.6,143,119.9,142.9,121.9z M158.7,126.2L158.7,126.2z"/>
	<path class="st0_mobile-testing-33" d="M145.3,101.1c-0.2-0.8-0.6-1.6-1.2-2.1c-0.6-0.5-1.3-0.9-2-1.2c-0.4-0.2-0.8-0.3-1.2-0.3&#10;&#9;&#9;c-0.3,0-0.6,0.1-0.9,0.2c-0.7,0.3-1.2,0.8-1.5,1.4c-0.2,0.5-0.3,1.1-0.2,1.7c0,0.6,0.1,1.2,0.3,1.8c0.4,1.2,1.3,2.1,2.4,2.7&#10;&#9;&#9;c1.1,0.5,2.4,0.6,3.6,0.2"/>
	<path class="st3_mobile-testing-33" d="M143.1,106.5c-0.8,0-1.6-0.2-2.4-0.5c-1.3-0.6-2.3-1.8-2.8-3.1c-0.2-0.6-0.3-1.3-0.4-2c-0.1-0.7,0-1.4,0.3-2&#10;&#9;&#9;c0.4-0.8,1.1-1.4,1.9-1.8c0.4-0.2,0.7-0.3,1.1-0.3c0.5,0,1.1,0.1,1.6,0.4c0.8,0.3,1.5,0.8,2.2,1.3c0.7,0.7,1.2,1.6,1.4,2.6&#10;&#9;&#9;c0.1,0.4-0.2,0.8-0.6,0.9c-0.4,0.1-0.8-0.2-0.9-0.6l0,0c-0.1-0.7-0.4-1.3-0.9-1.7c-0.5-0.4-1.1-0.8-1.8-1c-0.3-0.1-0.6-0.2-0.9-0.3&#10;&#9;&#9;c-0.2,0-0.4,0.1-0.6,0.2c-0.5,0.2-0.9,0.5-1.1,1c-0.1,0.4-0.2,0.9-0.1,1.3c0,0.6,0.1,1.1,0.3,1.6c0.3,1,1.1,1.8,2,2.3&#10;&#9;&#9;c0.9,0.4,2,0.5,3,0.2c0.4-0.1,0.8,0.1,1,0.5c0.1,0.4-0.1,0.8-0.5,1C144.3,106.4,143.7,106.5,143.1,106.5z"/>
	<path class="st3_mobile-testing-33" d="M158.8,119.6c0,0-4.6,1-7.3-2c-1.6-1.6-2.4-3.8-2.2-6.1c0,0,5.4,4.6,9.9,4L158.8,119.6z"/>
	<path class="st3_mobile-testing-33" d="M157,120.5c-2.3,0.1-4.5-0.8-6.1-2.5c-1.7-1.8-2.6-4.2-2.4-6.7c0.1-0.4,0.5-0.7,0.9-0.6c0.1,0,0.2,0.1,0.3,0.2&#10;&#9;&#9;c0.1,0,5.2,4.4,9.3,3.9c0.4-0.1,0.8,0.2,0.8,0.7c0,0.1,0,0.1,0,0.2l-0.4,4.1c0,0.3-0.3,0.6-0.6,0.7&#10;&#9;&#9;C158.3,120.5,157.7,120.5,157,120.5z M158.8,119.6L158.8,119.6z M150.1,113c0.3,1.5,1,2.9,2,4c1.9,2.1,4.9,2,6.1,1.9l0.2-2.6&#10;&#9;&#9;C155.2,116.3,151.8,114.3,150.1,113z"/>
	<path class="st0_mobile-testing-33" d="M158.4,99c0,0,3.3,5.4,2.4,6.3s-3.2,0.2-3.2,0.2"/>
	<path class="st3_mobile-testing-33" d="M159.4,106.5c-0.7,0-1.4-0.1-2-0.3c-0.4-0.1-0.6-0.5-0.5-0.9s0.5-0.6,0.9-0.5c0.8,0.3,1.6,0.3,2.4,0.1&#10;&#9;&#9;c0-0.7-1.1-3.2-2.5-5.4c-0.2-0.3-0.1-0.8,0.2-1c0.3-0.2,0.8-0.1,1,0.2c2.4,3.9,3.2,6.4,2.3,7.2&#10;&#9;&#9;C160.8,106.3,160.1,106.6,159.4,106.5z"/>
	<ellipse transform="matrix(0.9849 -0.1733 0.1733 0.9849 -14.8634 27.9284)" class="st3_mobile-testing-33" cx="152.5" cy="99.1" rx="0.9" ry="1.2"/>
	
		<ellipse transform="matrix(0.9849 -0.1733 0.1733 0.9849 -14.9861 29.8204)" class="st3_mobile-testing-33" cx="163.3" cy="100.7" rx="0.9" ry="1.2"/>
	<path class="st0_mobile-testing-33" d="M161.8,108.3c0,0-3.4,4.6-8.8-0.2"/>
	<path class="st3_mobile-testing-33" d="M157.8,111.1c-2-0.1-3.9-0.9-5.2-2.3c-0.3-0.3-0.3-0.7-0.1-1.1c0.3-0.3,0.7-0.3,1.1-0.1c0,0,0,0,0,0&#10;&#9;&#9;c1.6,1.4,3.2,2.1,4.7,1.9c1.2-0.2,2.2-0.7,3-1.7c0.2-0.3,0.7-0.4,1.1-0.2c0.3,0.2,0.4,0.7,0.1,1.1l0,0&#10;&#9;&#9;C161.4,110.2,159.7,111.1,157.8,111.1L157.8,111.1z"/>
	<path class="st3_mobile-testing-33" d="M138.3,113.4L138.3,113.4l-6-0.1c-0.2,0-0.4-0.1-0.5-0.2c-0.1-0.2-0.2-0.4-0.2-0.6l1.2-18.3&#10;&#9;&#9;c0.3-4.1,0.7-8.5,3.1-12.5c1.3-2.4,3.3-4.3,5.8-5.3c2.9-1,6.1-0.1,7.6,2.2c0.3,0.3,0.2,0.8-0.1,1.1c-0.3,0.3-0.8,0.2-1.1-0.1&#10;&#9;&#9;c0,0,0-0.1-0.1-0.1c-1.3-1.9-4-2.2-5.9-1.6c-2.2,0.9-3.9,2.6-5,4.7c-2.2,3.8-2.6,7.9-2.9,11.8l-1.3,17.5h5.3c0.4,0,0.8,0.3,0.8,0.8&#10;&#9;&#9;S138.7,113.4,138.3,113.4L138.3,113.4z"/>
	<path class="st3_mobile-testing-33" d="M169.3,119.2c-1.8,0-3.6-0.1-5.4-0.3c-0.4,0-0.7-0.3-0.7-0.8c0-0.4,0.3-0.7,0.8-0.7c0.1,0,0.1,0,0.2,0&#10;&#9;&#9;c2.8,0.3,5.6,0.4,8.3,0.2c1.2-5.3,2-10.6,2.3-16c0.5-4.3,0.2-8.7-0.7-12.9c-1-4.2-3.5-7.8-7-10.2c-3.4-2.1-11.5-1.7-15.1,0.7&#10;&#9;&#9;c-0.3,0.3-0.8,0.2-1.1-0.1c-0.3-0.3-0.2-0.8,0.1-1.1c0,0,0.1,0,0.1-0.1c3.7-2.5,12.6-3.4,16.7-0.8c3.8,2.6,6.6,6.6,7.6,11.1&#10;&#9;&#9;c1,4.4,1.3,8.9,0.8,13.4c-0.4,5.6-1.2,11.3-2.5,16.8c-0.1,0.3-0.3,0.6-0.7,0.6C171.8,119.1,170.6,119.2,169.3,119.2z"/>
	<polygon class="st3_mobile-testing-33" points="203.8,172.9 154.6,172.9 161.5,138.4 210.7,138.4 &#9;"/>
	<rect x="129.7" y="172.6" class="st3_mobile-testing-33" width="73.9" height="3.6"/>
	<path class="st0_mobile-testing-33" d="M199.7,172.6H157c-0.4,0-0.8-0.3-0.8-0.8s0.3-0.8,0.8-0.8h42.7c0.4,0,0.8,0.3,0.8,0.8S200.1,172.6,199.7,172.6&#10;&#9;&#9;L199.7,172.6z"/>
	<path class="st0_mobile-testing-33" d="M109.5,150.1c0,0-7.7,39.5-1.5,44.8s62-7.4,62-7.4l1.6-11l-45.5-0.9l1.3-20"/>
	<path class="st3_mobile-testing-33" d="M115.3,196.9c-3.8,0-6.6-0.4-7.8-1.4c-6.3-5.4,0.4-41.4,1.2-45.5c0.1-0.4,0.4-0.7,0.9-0.6&#10;&#9;&#9;c0.4,0.1,0.7,0.4,0.6,0.9c0,0,0,0,0,0.1c-2.1,10.9-6.6,39.9-1.7,44.1s45.1-3.9,60.8-7.4l1.4-9.7l-44.6-0.9c-0.2,0-0.4-0.1-0.5-0.2&#10;&#9;&#9;c-0.1-0.1-0.2-0.3-0.2-0.6l1.3-20c0-0.4,0.4-0.7,0.8-0.7c0.4,0,0.7,0.4,0.7,0.8l-1.2,19.2l44.7,0.9c0.2,0,0.4,0.1,0.6,0.3&#10;&#9;&#9;c0.1,0.2,0.2,0.4,0.2,0.6l-1.6,11c0,0.3-0.3,0.6-0.6,0.6C165.5,189.3,131.4,196.9,115.3,196.9z"/>
	<path class="st0_mobile-testing-33" d="M166.3,176.5c0,0,17-2.4,16.8-1.3s-5.6,3.4-5.6,3.4s11.5-3.9,12.6-2.9s-3.2,4.1-7,6.2s-11.1,6.1-21.2,6.6"/>
	<path class="st3_mobile-testing-33" d="M161.8,189.3c-0.4,0-0.8-0.3-0.8-0.8s0.3-0.8,0.8-0.8c9.8-0.4,16.9-4.3,20.8-6.4l0.1-0.1c4-2.2,6.4-4.3,6.8-5&#10;&#9;&#9;c-1.1-0.2-6.9,1.4-11.8,3.1c-0.4,0.1-0.8-0.1-0.9-0.5c-0.1-0.4,0.1-0.7,0.4-0.9c1.5-0.7,3-1.4,4.4-2.3c-2.7,0.1-9.2,0.8-15.1,1.6&#10;&#9;&#9;c-0.4,0.1-0.8-0.2-0.8-0.6c0,0,0,0,0,0c-0.1-0.4,0.2-0.8,0.6-0.9c16.4-2.3,17.1-1.5,17.4-1.2c0.2,0.2,0.2,0.5,0.2,0.8&#10;&#9;&#9;c-0.1,0.2-0.2,0.5-0.4,0.6c3.4-0.9,6.4-1.5,7.1-0.8c0.3,0.3,0.5,0.7,0.4,1.1c-0.2,2.1-5.9,5.3-7.6,6.3l-0.1,0.1&#10;&#9;&#9;C179.3,184.8,172,188.8,161.8,189.3L161.8,189.3z"/>
	<path class="st0_mobile-testing-33" d="M153.4,229.6c-0.1,0-0.1,0-0.2,0c-0.4-0.1-0.6-0.5-0.6-0.9c0,0,0,0,0,0l5.3-20.9c0.1-0.4,0.5-0.6,0.9-0.5&#10;&#9;&#9;c0.4,0.1,0.6,0.5,0.5,0.9l-5.3,20.9C154.1,229.4,153.8,229.6,153.4,229.6z"/>
	<path class="st0_mobile-testing-33" d="M206.6,149.9c-0.7-0.7-1.7-1.1-2.7-1.2c-0.3,0-0.6,0-0.8,0.2c-0.4,0.4-0.1,1,0.2,1.5c0.9,1.4,1.9,2.7,2.9,4&#10;&#9;&#9;c-1-0.9-2.3-1.5-3.6-1.8c-0.4-0.2-0.9-0.2-1.4,0c-0.6,0.4-0.9,1.1-0.6,1.8c0.3,0.6,0.7,1.2,1.2,1.7l2.2,2.3&#10;&#9;&#9;c-0.9-0.8-2.1-1.2-3.3-1.4c-0.5-0.1-1,0-1.4,0.3c-0.6,0.6-0.1,1.6,0.5,2.1c0.7,0.7,1.5,1.3,2.3,1.7l-1.8-0.8&#10;&#9;&#9;c-0.3-0.2-0.7-0.2-1-0.2c-0.7,0.2-0.8,1.2-0.5,1.9c0.6,1.8,1.8,3.6,3.7,4c1.4,0.2,2.9-0.3,4-1.2&#10;&#9;&#9;C211.9,161.1,211.6,153.8,206.6,149.9z"/>
	<path class="st3_mobile-testing-33" d="M203.3,167c-0.3,0-0.5,0-0.8-0.1c-2.3-0.4-3.7-2.6-4.3-4.5c-0.2-0.7-0.2-1.5,0.1-2.1c0.1-0.3,0.4-0.5,0.7-0.6&#10;&#9;&#9;c-0.7-0.8-0.8-1.9-0.2-2.8c0.5-0.5,1.3-0.7,2-0.6h0.1c-0.5-0.5-0.8-1-1-1.6c-0.4-1,0.1-2.2,1-2.7c0.6-0.3,1.3-0.3,1.9-0.1l0.7,0.2&#10;&#9;&#9;c-0.3-0.4-0.6-0.8-0.9-1.3c-0.9-1.4-0.4-2.1-0.1-2.4c0.4-0.3,0.9-0.5,1.4-0.5c1.1,0.1,2.2,0.6,3.1,1.4l0,0c2.6,2,4.2,5.1,4.1,8.4&#10;&#9;&#9;c-0.1,3.1-1.6,6-4.1,7.9C206.1,166.4,204.7,166.9,203.3,167z M199.7,161L199.7,161c-0.1,0.3-0.1,0.7,0,1c0.4,1.5,1.5,3.2,3.1,3.5&#10;&#9;&#9;c1.2,0.1,2.5-0.3,3.4-1.1c2.2-1.5,3.5-4,3.5-6.7c0-2.8-1.3-5.5-3.6-7.2l0,0c-0.6-0.5-1.4-0.9-2.2-1c-0.1,0-0.2,0-0.2,0&#10;&#9;&#9;c0,0,0.1,0.2,0.3,0.6c0.9,1.4,1.8,2.7,2.8,4c0.2,0.3,0.2,0.7-0.1,1c-0.3,0.3-0.7,0.3-1,0c-0.9-0.8-2.1-1.4-3.3-1.7&#10;&#9;&#9;c-0.3-0.1-0.6-0.1-0.9,0c-0.3,0.2-0.4,0.6-0.2,0.9c0.2,0.5,0.6,1,1,1.4l2.2,2.2c0.3,0.3,0.3,0.7,0.1,1.1c-0.3,0.3-0.7,0.3-1,0.1&#10;&#9;&#9;c-0.8-0.7-1.8-1.1-2.9-1.2c-0.4-0.1-0.7,0-0.8,0.1s0.1,0.7,0.5,1.1c0.6,0.6,1.3,1.2,2.1,1.6c0.4,0.2,0.5,0.6,0.3,1&#10;&#9;&#9;c-0.2,0.3-0.6,0.5-1,0.4l-1.8-0.8C200.1,161.1,199.9,161,199.7,161z"/>
	<line class="st2_mobile-testing-33" x1="127.2" y1="153.4" x2="128.2" y2="137.1"/>
	<path class="st3_mobile-testing-33" d="M127.2,154.1L127.2,154.1c-0.4,0-0.7-0.4-0.7-0.8l0.9-16.3c0-0.4,0.4-0.7,0.8-0.7c0.4,0,0.7,0.4,0.7,0.8&#10;&#9;&#9;l-0.9,16.3C128,153.8,127.7,154.1,127.2,154.1z"/>
</g>
<g id="character_male_mobile-testing-33">
	<path class="st3_mobile-testing-33" d="M298.4,204.9c0,0,1.7-38.7,2.4-39.3s25.5,2.7,25.5,2.7l-5.5,36.9L298.4,204.9z"/>
	<path class="st0_mobile-testing-33" d="M258.6,377.7c0,0-0.4,9.1,3.4,10.7c8.7,3.6,38.5-13.2,34.8-17.7s-13.7-1.9-13.7-1.9"/>
	<path class="st3_mobile-testing-33" d="M264.9,389.6c-1.1,0-2.2-0.2-3.2-0.5c-4.2-1.8-3.9-10.4-3.9-11.4c0-0.4,0.4-0.7,0.8-0.7c0.4,0,0.7,0.4,0.7,0.8&#10;&#9;&#9;c-0.1,2.4,0.2,8.8,2.9,10c6.9,2.9,28.7-8.2,33.3-14.5c0.4-0.6,1-1.6,0.6-2.1c-3.4-4.1-12.8-1.7-12.9-1.6c-0.4,0.1-0.8-0.1-0.9-0.5&#10;&#9;&#9;c0,0,0,0,0,0c-0.1-0.4,0.1-0.8,0.5-0.9c0.4-0.1,10.4-2.7,14.5,2.1c0.6,0.7,0.9,1.9-0.5,3.9C292.4,380.1,274.3,389.6,264.9,389.6z"/>
	<path class="st0_mobile-testing-33" d="M214.9,369.6c0,0-4.8,15.1,2.8,15.6c12,0.8,38.2-15.4,31.4-19.6s-25.5,0.2-25.5,0.2"/>
	<path class="st3_mobile-testing-33" d="M218.6,386c-0.3,0-0.6,0-0.9,0c-1.5,0-2.8-0.8-3.7-2c-2.9-4.3,0.1-14.1,0.2-14.5c0.1-0.4,0.5-0.6,0.9-0.5&#10;&#9;&#9;c0.4,0.1,0.6,0.5,0.5,0.9c0,0,0,0,0,0c0,0.1-3,9.5-0.4,13.2c0.6,0.8,1.5,1.4,2.5,1.4c4.4,0.3,11.6-1.9,18.9-5.8&#10;&#9;&#9;c6.8-3.7,11.9-7.9,12.7-10.6c0.3-0.7,0-1.5-0.6-1.8c0,0,0,0,0,0c-6.4-3.9-24.7,0.3-24.9,0.3c-0.4,0.1-0.8-0.1-0.9-0.5&#10;&#9;&#9;s0.1-0.8,0.5-0.9c0,0,0,0,0.1,0c0.8-0.2,19.1-4.4,26-0.2c1.3,0.7,1.8,2.2,1.3,3.6C248.7,374.8,229.4,386,218.6,386z"/>
	<path class="st0_mobile-testing-33" d="M208.6,210.2c0,0-11,33.1-3.5,35.2s22.6-8.5,22.6-8.5l-4.8-31.4L208.6,210.2z"/>
	<path class="st3_mobile-testing-33" d="M207.2,246.3c-0.8,0-1.5-0.1-2.3-0.3c-1-0.3-1.8-0.9-2.2-1.9c-3.8-7.1,4.8-33.2,5.2-34.3&#10;&#9;&#9;c0.1-0.2,0.2-0.4,0.5-0.5l14.3-4.8c0.2-0.1,0.4,0,0.6,0.1c0.2,0.1,0.3,0.3,0.4,0.5l4.8,31.4c0,0.3-0.1,0.6-0.3,0.7&#10;&#9;&#9;C227.6,237.8,215.3,246.3,207.2,246.3z M209.2,210.8c-1,3.2-8.5,26.6-5.2,32.7c0.2,0.5,0.7,0.9,1.3,1.1c6.5,1.7,19.2-6.6,21.6-8.2&#10;&#9;&#9;l-4.6-30L209.2,210.8z"/>
	<path class="st4_mobile-testing-33 targetColor" d="M216.2,178.5c0,0-9.8,24.4-11.3,34.9l13.3,0.2L216.2,178.5z" style="fill: rgb(104, 225, 253);"/>
	<path class="st3_mobile-testing-33" d="M275.7,242.8l7.4,125.9c0,0,0.6,3.4-10.9,7.4s-13.6,1.5-13.6,1.5s-6.3-57.8-9.5-91.7l-11.6,83.6&#10;&#9;&#9;c0,0-8,10.5-22.6,0l4.5-127.8L275.7,242.8z"/>
	<path class="st0_mobile-testing-33" d="M257.2,173.5l-0.4-13.8c0,0,5.6,3.2,7.2-3.4s-2.8-19.8-2.8-19.8l-8.5,0.8c0.3,0,0.3,9,0.2,9.9&#10;&#9;&#9;c-0.3,4.2-1.8,8.2-4.2,11.6c-1.9,2.6-5.1,1.8-8.3,1.8l-0.6,11.3L257.2,173.5z"/>
	<path class="st3_mobile-testing-33" d="M257.2,174.2L257.2,174.2l-17.4-1.5c-0.4,0-0.7-0.4-0.7-0.8l0.6-11.3c0-0.4,0.4-0.7,0.8-0.7c0.6,0,1.2,0,1.8,0&#10;&#9;&#9;c2.4,0.1,4.6,0.2,5.9-1.6c2.3-3.3,3.7-7.2,4-11.3c0.1-0.9,0-8.4-0.2-9.5c-0.1-0.1-0.1-0.2-0.1-0.3c0-0.4,0.3-0.7,0.7-0.8l0,0&#10;&#9;&#9;l8.5-0.8c0.3,0,0.7,0.2,0.8,0.5c0.2,0.5,4.4,13.4,2.8,20.2c-0.5,2.2-1.5,3.7-3,4.4c-1.3,0.5-2.8,0.5-4.1,0l0.4,12.6&#10;&#9;&#9;c0,0.2-0.1,0.4-0.2,0.6C257.5,174.1,257.4,174.2,257.2,174.2z M240.6,171.2l15.8,1.4l-0.4-12.9c0-0.3,0.1-0.5,0.4-0.7&#10;&#9;&#9;c0.2-0.1,0.5-0.1,0.8,0c0,0,2.2,1.2,3.9,0.4c1-0.5,1.8-1.6,2.2-3.3c1.3-5.6-1.8-16.2-2.6-18.8l-7.1,0.6c0.3,2.8,0.2,9.2,0.2,9.3&#10;&#9;&#9;c-0.3,4.3-1.8,8.5-4.3,12c-1.8,2.4-4.5,2.3-7.2,2.2h-1L240.6,171.2z"/>
	<path class="st4_mobile-testing-33 targetColor" d="M279.7,245.8c0,0-2.8-53.2-13.9-71.2c-7.8-12.7-37.5-12.6-48.4,0.6s-4,75.7-4,75.7S265.8,266.9,279.7,245.8z" style="fill: rgb(104, 225, 253);"/>
	<path class="st3_mobile-testing-33" d="M236.1,162.1c-0.1,0-0.2,0-0.3-0.1c-3.3-1.5-6-3.9-7.9-7c-1.9-3.2-2.1-7.1-0.7-10.5c0.5-1,1-1.9,1.7-2.7&#10;&#9;&#9;c0.8-1,1.4-2.1,1.9-3.3c0.3-1.3,0.5-2.7,0.4-4c0-1.2,0-2.4,0.2-3.5c0.6-2.9,2.4-5.5,4.9-7.1c2.4-1.6,5.2-2.5,8.1-2.7&#10;&#9;&#9;c0.4,0,0.9-0.1,1.4-0.1c1,0,2.1-0.2,3.1-0.4c1.8-0.5,3.5-1.3,5.1-2.4c1.6-1.1,3.4-1.9,5.3-2.5c5.7-1.3,11.4,2.2,12.7,8&#10;&#9;&#9;c1.3,5.7-2.2,11.4-8,12.7c-0.3,0.1-0.6,0.1-0.9,0.2c-0.4,0-0.8-0.2-0.8-0.7c0,0,0,0,0,0c0-0.4,0.2-0.8,0.7-0.8&#10;&#9;&#9;c5-0.7,8.4-5.4,7.7-10.3c-0.7-5-5.4-8.4-10.3-7.7c-0.2,0-0.4,0.1-0.6,0.1c-1.7,0.5-3.4,1.3-4.9,2.3c-1.7,1.1-3.6,2-5.5,2.6&#10;&#9;&#9;c-1.1,0.2-2.2,0.4-3.4,0.4l-1.3,0.1c-2.6,0.2-5.2,1-7.4,2.4c-2.2,1.4-3.7,3.6-4.2,6.1c-0.2,1.1-0.2,2.2-0.2,3.2&#10;&#9;&#9;c0.1,1.5,0,3-0.4,4.5c-0.5,1.3-1.2,2.6-2.1,3.7c-0.6,0.8-1.1,1.6-1.6,2.5c-1.3,3-1,6.4,0.6,9.1c1.7,2.8,4.2,5,7.2,6.4&#10;&#9;&#9;c0.4,0.2,0.5,0.6,0.4,1C236.7,162,236.4,162.1,236.1,162.1L236.1,162.1z"/>
	<path class="st0_mobile-testing-33" d="M254.1,148.4c-0.5-1.4-1.4-2.5-2.6-3.4c-1.2-0.9-2.8-0.8-4,0.1c-0.7,0.8-1,1.9-0.8,3c0.3,1,0.8,2,1.5,2.8&#10;&#9;&#9;c1.2,1.7,3,2.9,5.1,3.3"/>
	<path class="st3_mobile-testing-33" d="M253.3,155L253.3,155c-2.3-0.4-4.4-1.7-5.7-3.6c-0.8-0.9-1.3-2-1.6-3.1c-0.3-1.3,0.1-2.7,1-3.7&#10;&#9;&#9;c1.4-1.2,3.4-1.3,4.9-0.2c1.3,0.9,2.3,2.2,2.9,3.7c0.2,0.4,0,0.8-0.4,1c-0.4,0.2-0.8,0-1-0.4c-0.5-1.2-1.3-2.3-2.3-3.1&#10;&#9;&#9;c-0.9-0.7-2.2-0.7-3.1,0c-0.6,0.6-0.8,1.5-0.6,2.3c0.2,0.9,0.7,1.8,1.4,2.5c1,1.2,2.6,2.8,4.6,3c0.4,0.1,0.7,0.4,0.6,0.9&#10;&#9;&#9;C254,154.7,253.7,154.9,253.3,155L253.3,155z"/>
	<path class="st0_mobile-testing-33" d="M268.5,201.8c0,0,0.4,10.9,3,10.7s23.4-16,23.4-16s1.5-10.9,3.2-11.3s1.3,8.1,1.3,8.3c0-0.7,4.4-5.2,5.4-6.6&#10;&#9;&#9;c1.9-2.7,3.8-5.6,6.4-7.7c0.7,0.5,0.6,1.6,0.4,2.4c-0.7,2.6-1.8,5.2-3.1,7.6c0.4-1,1-1.9,1.7-2.7c0.4-0.5,1-0.8,1.7-0.8&#10;&#9;&#9;c0.4,0.2,0.8,0.5,0.9,0.9c2.2,4.5-2,11.2-4.6,14.7c-5.6,7.5-27.9,32.2-41.4,35.2s-18.1-25.7-18.1-25.7"/>
	<path class="st3_mobile-testing-33" d="M264.7,237.5c-1.9,0-3.8-0.6-5.3-1.7c-8.4-5.8-11.4-24.1-11.5-24.9c-0.1-0.4,0.2-0.8,0.6-0.9&#10;&#9;&#9;c0.4-0.1,0.8,0.2,0.9,0.6c0,0.2,3,18.5,10.9,23.9c1.8,1.3,4.1,1.8,6.3,1.2c13.5-3,35.9-28.1,41-34.9c2.1-2.8,6.6-9.6,4.5-13.9&#10;&#9;&#9;c-0.2-0.4-0.4-0.5-0.5-0.6s-0.6,0.2-0.9,0.6c-0.3,0.3-0.5,0.6-0.7,0.9c-0.3,0.5-0.6,1.1-0.9,1.6c-0.2,0.4-0.7,0.5-1,0.3&#10;&#9;&#9;c-0.3-0.2-0.5-0.6-0.3-1c0.2-0.6,0.6-1.2,0.9-1.7c0.9-1.9,1.7-3.8,2.2-5.8c0.1-0.3,0.2-0.7,0.1-1.1c-1.8,1.8-3.4,3.8-4.8,5.9&#10;&#9;&#9;l-0.7,1c-0.4,0.6-1.4,1.6-2.4,2.8c-1,1.1-2,2.3-2.9,3.5c-0.1,0.4-0.4,0.6-0.8,0.6c-0.4,0-0.7-0.4-0.7-0.8c0.1-3.3-0.1-6.5-0.5-7.4&#10;&#9;&#9;c-0.7,0.9-1.9,6.1-2.5,10.6c0,0.2-0.1,0.4-0.3,0.5c-3.5,2.7-21,16-23.8,16.2c-0.5,0-1-0.2-1.3-0.5c-2.1-1.9-2.4-9.5-2.5-11&#10;&#9;&#9;c0-0.4,0.3-0.8,0.7-0.8c0.4,0,0.8,0.3,0.8,0.7c0,0,0,0,0,0c0.1,3.2,0.8,8.8,2,9.9c0.1,0.1,0.2,0.1,0.2,0.1&#10;&#9;&#9;c1.6-0.1,12.8-8.1,22.7-15.7c0.7-5.2,2-11.2,3.7-11.6c0.4-0.1,0.8,0,1.1,0.3c1,0.8,1.2,3.9,1.2,6.4c0.4-0.5,1-1.2,1.7-2&#10;&#9;&#9;c0.9-1,1.9-2.1,2.2-2.6l0.7-1c1.6-2.5,3.6-4.8,5.8-6.8c0.3-0.2,0.6-0.2,0.9,0c0.6,0.4,1.2,1.3,0.7,3.3c-0.3,1.1-0.6,2.1-1,3.2&#10;&#9;&#9;c0.3-0.1,0.5-0.1,0.8,0c0.6,0.2,1.1,0.7,1.4,1.3c2.4,4.8-1.9,11.8-4.7,15.4c-5.2,6.9-27.9,32.3-41.9,35.4&#10;&#9;&#9;C266.1,237.4,265.4,237.5,264.7,237.5z"/>
	<path class="st3_mobile-testing-33" d="M244.2,212.1c-0.1,0-0.3,0-0.4-0.1c-0.2-0.1-0.3-0.4-0.4-0.6l-0.8-25.8c0-0.4,0.3-0.8,0.7-0.8c0,0,0,0,0,0&#10;&#9;&#9;c0.4,0,0.7,0.3,0.8,0.7c0,0,0,0,0,0l0.7,24.7l23-9.8c0.4-0.2,0.8,0,1,0.4c0,0,0,0,0,0c0.2,0.4,0,0.8-0.4,1c0,0,0,0,0,0l-24,10.2&#10;&#9;&#9;C244.4,212.1,244.3,212.1,244.2,212.1z"/>
	<path class="st0_mobile-testing-33" d="M246.1,283.8c-0.3,0-0.5-0.1-0.6-0.4c-0.3-0.5-7.1-12.3-8.1-21.9c0-0.4,0.3-0.8,0.7-0.8c0.4,0,0.8,0.3,0.8,0.7&#10;&#9;&#9;c1,9.3,7.9,21.2,7.9,21.3c0.2,0.4,0.1,0.8-0.3,1C246.3,283.7,246.2,283.8,246.1,283.8z"/>
	<path class="st0_mobile-testing-33" d="M263.6,153c0,0-1.8,2.3-3.9,0.7"/>
	<path class="st3_mobile-testing-33" d="M261.3,155c-0.7,0-1.4-0.3-2-0.7c-0.3-0.3-0.4-0.7-0.1-1.1c0.3-0.3,0.7-0.4,1.1-0.1c1.4,1.1,2.7-0.4,2.9-0.6&#10;&#9;&#9;c0.3-0.3,0.7-0.4,1.1-0.1s0.4,0.7,0.1,1.1C263.5,154.4,262.4,154.9,261.3,155z"/>
</g>
</svg>