<svg id="visual" viewBox="0 0 350 85" width="350" height="85" xmlns="http://www.w3.org/2000/svg" xmlns:xlink="http://www.w3.org/1999/xlink" version="1.1"><path d="M0 8L4.2 8.2C8.3 8.3 16.7 8.7 25 8C33.3 7.3 41.7 5.7 50 5.2C58.3 4.7 66.7 5.3 75 5.5C83.3 5.7 91.7 5.3 100 6C108.3 6.7 116.7 8.3 125 9.2C133.3 10 141.7 10 150 10C158.3 10 166.7 10 175 9.7C183.3 9.3 191.7 8.7 200 8.7C208.3 8.7 216.7 9.3 225 8.8C233.3 8.3 241.7 6.7 250 6.7C258.3 6.7 266.7 8.3 275 9.2C283.3 10 291.7 10 300 9.8C308.3 9.7 316.7 9.3 325 8.3C333.3 7.3 341.7 5.7 345.8 4.8L350 4L350 0L345.8 0C341.7 0 333.3 0 325 0C316.7 0 308.3 0 300 0C291.7 0 283.3 0 275 0C266.7 0 258.3 0 250 0C241.7 0 233.3 0 225 0C216.7 0 208.3 0 200 0C191.7 0 183.3 0 175 0C166.7 0 158.3 0 150 0C141.7 0 133.3 0 125 0C116.7 0 108.3 0 100 0C91.7 0 83.3 0 75 0C66.7 0 58.3 0 50 0C41.7 0 33.3 0 25 0C16.7 0 8.3 0 4.2 0L0 0Z" fill="#101010"></path><path d="M0 10L4.2 10.3C8.3 10.7 16.7 11.3 25 11.5C33.3 11.7 41.7 11.3 50 11C58.3 10.7 66.7 10.3 75 9.8C83.3 9.3 91.7 8.7 100 9.5C108.3 10.3 116.7 12.7 125 13.5C133.3 14.3 141.7 13.7 150 13.8C158.3 14 166.7 15 175 15C183.3 15 191.7 14 200 13.3C208.3 12.7 216.7 12.3 225 11.7C233.3 11 241.7 10 250 10C258.3 10 266.7 11 275 12C283.3 13 291.7 14 300 14.3C308.3 14.7 316.7 14.3 325 13C333.3 11.7 341.7 9.3 345.8 8.2L350 7L350 2L345.8 2.8C341.7 3.7 333.3 5.3 325 6.3C316.7 7.3 308.3 7.7 300 7.8C291.7 8 283.3 8 275 7.2C266.7 6.3 258.3 4.7 250 4.7C241.7 4.7 233.3 6.3 225 6.8C216.7 7.3 208.3 6.7 200 6.7C191.7 6.7 183.3 7.3 175 7.7C166.7 8 158.3 8 150 8C141.7 8 133.3 8 125 7.2C116.7 6.3 108.3 4.7 100 4C91.7 3.3 83.3 3.7 75 3.5C66.7 3.3 58.3 2.7 50 3.2C41.7 3.7 33.3 5.3 25 6C16.7 6.7 8.3 6.3 4.2 6.2L0 6Z" fill="#111111"></path><path d="M0 18L4.2 19.5C8.3 21 16.7 24 25 23.7C33.3 23.3 41.7 19.7 50 19.2C58.3 18.7 66.7 21.3 75 22.3C83.3 23.3 91.7 22.7 100 23C108.3 23.3 116.7 24.7 125 24.8C133.3 25 141.7 24 150 24.7C158.3 25.3 166.7 27.7 175 27.3C183.3 27 191.7 24 200 21.7C208.3 19.3 216.7 17.7 225 16.5C233.3 15.3 241.7 14.7 250 15.2C258.3 15.7 266.7 17.3 275 18.3C283.3 19.3 291.7 19.7 300 20.8C308.3 22 316.7 24 325 24.3C333.3 24.7 341.7 23.3 345.8 22.7L350 22L350 5L345.8 6.2C341.7 7.3 333.3 9.7 325 11C316.7 12.3 308.3 12.7 300 12.3C291.7 12 283.3 11 275 10C266.7 9 258.3 8 250 8C241.7 8 233.3 9 225 9.7C216.7 10.3 208.3 10.7 200 11.3C191.7 12 183.3 13 175 13C166.7 13 158.3 12 150 11.8C141.7 11.7 133.3 12.3 125 11.5C116.7 10.7 108.3 8.3 100 7.5C91.7 6.7 83.3 7.3 75 7.8C66.7 8.3 58.3 8.7 50 9C41.7 9.3 33.3 9.7 25 9.5C16.7 9.3 8.3 8.7 4.2 8.3L0 8Z" fill="#121212"></path><path d="M0 23L4.2 24.5C8.3 26 16.7 29 25 28.5C33.3 28 41.7 24 50 24C58.3 24 66.7 28 75 29.2C83.3 30.3 91.7 28.7 100 28.7C108.3 28.7 116.7 30.3 125 30.3C133.3 30.3 141.7 28.7 150 29.7C158.3 30.7 166.7 34.3 175 34.2C183.3 34 191.7 30 200 27.5C208.3 25 216.7 24 225 23.2C233.3 22.3 241.7 21.7 250 22.3C258.3 23 266.7 25 275 26C283.3 27 291.7 27 300 27.3C308.3 27.7 316.7 28.3 325 29.8C333.3 31.3 341.7 33.7 345.8 34.8L350 36L350 20L345.8 20.7C341.7 21.3 333.3 22.7 325 22.3C316.7 22 308.3 20 300 18.8C291.7 17.7 283.3 17.3 275 16.3C266.7 15.3 258.3 13.7 250 13.2C241.7 12.7 233.3 13.3 225 14.5C216.7 15.7 208.3 17.3 200 19.7C191.7 22 183.3 25 175 25.3C166.7 25.7 158.3 23.3 150 22.7C141.7 22 133.3 23 125 22.8C116.7 22.7 108.3 21.3 100 21C91.7 20.7 83.3 21.3 75 20.3C66.7 19.3 58.3 16.7 50 17.2C41.7 17.7 33.3 21.3 25 21.7C16.7 22 8.3 19 4.2 17.5L0 16Z" fill="#131313"></path><path d="M0 39L4.2 39.8C8.3 40.7 16.7 42.3 25 41.8C33.3 41.3 41.7 38.7 50 39.7C58.3 40.7 66.7 45.3 75 46C83.3 46.7 91.7 43.3 100 43C108.3 42.7 116.7 45.3 125 44C133.3 42.7 141.7 37.3 150 36.5C158.3 35.7 166.7 39.3 175 40C183.3 40.7 191.7 38.3 200 38.5C208.3 38.7 216.7 41.3 225 40.7C233.3 40 241.7 36 250 35C258.3 34 266.7 36 275 38C283.3 40 291.7 42 300 43C308.3 44 316.7 44 325 44.3C333.3 44.7 341.7 45.3 345.8 45.7L350 46L350 34L345.8 32.8C341.7 31.7 333.3 29.3 325 27.8C316.7 26.3 308.3 25.7 300 25.3C291.7 25 283.3 25 275 24C266.7 23 258.3 21 250 20.3C241.7 19.7 233.3 20.3 225 21.2C216.7 22 208.3 23 200 25.5C191.7 28 183.3 32 175 32.2C166.7 32.3 158.3 28.7 150 27.7C141.7 26.7 133.3 28.3 125 28.3C116.7 28.3 108.3 26.7 100 26.7C91.7 26.7 83.3 28.3 75 27.2C66.7 26 58.3 22 50 22C41.7 22 33.3 26 25 26.5C16.7 27 8.3 24 4.2 22.5L0 21Z" fill="#191919"></path><path d="M0 66L4.2 63.8C8.3 61.7 16.7 57.3 25 55.8C33.3 54.3 41.7 55.7 50 57.2C58.3 58.7 66.7 60.3 75 61C83.3 61.7 91.7 61.3 100 62C108.3 62.7 116.7 64.3 125 65.3C133.3 66.3 141.7 66.7 150 66C158.3 65.3 166.7 63.7 175 60.8C183.3 58 191.7 54 200 52.2C208.3 50.3 216.7 50.7 225 51C233.3 51.3 241.7 51.7 250 53C258.3 54.3 266.7 56.7 275 59.7C283.3 62.7 291.7 66.3 300 65.3C308.3 64.3 316.7 58.7 325 56.2C333.3 53.7 341.7 54.3 345.8 54.7L350 55L350 44L345.8 43.7C341.7 43.3 333.3 42.7 325 42.3C316.7 42 308.3 42 300 41C291.7 40 283.3 38 275 36C266.7 34 258.3 32 250 33C241.7 34 233.3 38 225 38.7C216.7 39.3 208.3 36.7 200 36.5C191.7 36.3 183.3 38.7 175 38C166.7 37.3 158.3 33.7 150 34.5C141.7 35.3 133.3 40.7 125 42C116.7 43.3 108.3 40.7 100 41C91.7 41.3 83.3 44.7 75 44C66.7 43.3 58.3 38.7 50 37.7C41.7 36.7 33.3 39.3 25 39.8C16.7 40.3 8.3 38.7 4.2 37.8L0 37Z" fill="#232323"></path><path d="M0 79L4.2 78.8C8.3 78.7 16.7 78.3 25 78.2C33.3 78 41.7 78 50 78.2C58.3 78.3 66.7 78.7 75 79.3C83.3 80 91.7 81 100 81C108.3 81 116.7 80 125 80.2C133.3 80.3 141.7 81.7 150 82.3C158.3 83 166.7 83 175 82C183.3 81 191.7 79 200 78C208.3 77 216.7 77 225 78C233.3 79 241.7 81 250 82C258.3 83 266.7 83 275 82.2C283.3 81.3 291.7 79.7 300 79.7C308.3 79.7 316.7 81.3 325 82C333.3 82.7 341.7 82.3 345.8 82.2L350 82L350 53L345.8 52.7C341.7 52.3 333.3 51.7 325 54.2C316.7 56.7 308.3 62.3 300 63.3C291.7 64.3 283.3 60.7 275 57.7C266.7 54.7 258.3 52.3 250 51C241.7 49.7 233.3 49.3 225 49C216.7 48.7 208.3 48.3 200 50.2C191.7 52 183.3 56 175 58.8C166.7 61.7 158.3 63.3 150 64C141.7 64.7 133.3 64.3 125 63.3C116.7 62.3 108.3 60.7 100 60C91.7 59.3 83.3 59.7 75 59C66.7 58.3 58.3 56.7 50 55.2C41.7 53.7 33.3 52.3 25 53.8C16.7 55.3 8.3 59.7 4.2 61.8L0 64Z" fill="#2d2d2d"></path><path d="M0 86L4.2 86C8.3 86 16.7 86 25 86C33.3 86 41.7 86 50 86C58.3 86 66.7 86 75 86C83.3 86 91.7 86 100 86C108.3 86 116.7 86 125 86C133.3 86 141.7 86 150 86C158.3 86 166.7 86 175 86C183.3 86 191.7 86 200 86C208.3 86 216.7 86 225 86C233.3 86 241.7 86 250 86C258.3 86 266.7 86 275 86C283.3 86 291.7 86 300 86C308.3 86 316.7 86 325 86C333.3 86 341.7 86 345.8 86L350 86L350 80L345.8 80.2C341.7 80.3 333.3 80.7 325 80C316.7 79.3 308.3 77.7 300 77.7C291.7 77.7 283.3 79.3 275 80.2C266.7 81 258.3 81 250 80C241.7 79 233.3 77 225 76C216.7 75 208.3 75 200 76C191.7 77 183.3 79 175 80C166.7 81 158.3 81 150 80.3C141.7 79.7 133.3 78.3 125 78.2C116.7 78 108.3 79 100 79C91.7 79 83.3 78 75 77.3C66.7 76.7 58.3 76.3 50 76.2C41.7 76 33.3 76 25 76.2C16.7 76.3 8.3 76.7 4.2 76.8L0 77Z" fill="#373737"></path></svg>