<?xml version="1.0" encoding="UTF-8" standalone="no"?>
<!-- Created with Inkscape (http://www.inkscape.org/) -->

<svg
   xmlns:dc="http://purl.org/dc/elements/1.1/"
   xmlns:cc="http://creativecommons.org/ns#"
   xmlns:rdf="http://www.w3.org/1999/02/22-rdf-syntax-ns#"
   xmlns:svg="http://www.w3.org/2000/svg"
   xmlns="http://www.w3.org/2000/svg"
   xmlns:sodipodi="http://sodipodi.sourceforge.net/DTD/sodipodi-0.dtd"
   xmlns:inkscape="http://www.inkscape.org/namespaces/inkscape"
   width="270"
   height="190"
   id="svg2"
   version="1.1"
   inkscape:version="0.48.5 r10040"
   sodipodi:docname="CB.svg">
  <title>KBZ Bank</title>
  <g
     transform="translate(0,-862.36214)">
    <path
       style="fill:#0000ab;fill-opacity:1;fill-rule:nonzero;stroke:none"
       d="m 135.16718,900.67587 -27.44567,47.55439 -27.445679,47.53739 54.891349,0 54.90834,0 -27.44568,-47.53739 -27.46266,-47.55439 z m 0,21.51837 18.34241,31.75954 18.34241,31.75957 -36.68482,0 -36.667834,0 18.342414,-31.75957 18.32542,-31.75954 z"
       id="path3957"
       inkscape:connector-curvature="0" />
    <path
       inkscape:connector-curvature="0"
       id="path3968"
       d="m 135.16387,866.6381 -27.44567,47.55439 -27.445678,47.5374 54.891348,0 54.90834,0 -27.44568,-47.5374 -27.46266,-47.55439 z m 0,21.51835 18.34241,31.75954 18.3424,31.75954 -36.68481,0 -36.667834,0 18.342414,-31.75954 18.32542,-31.75954 z"
       style="fill:#ff0000;fill-opacity:1;fill-rule:nonzero;stroke:none" />
    <g
       id="g3998"
       transform="matrix(0.42802114,0,0,0.42802114,8.3368487,1013.7243)">
      <g>
        <path
           id="path3978"
           d="M 0,0.81 C 8.07,0.7 16.14,0.71 24.21,0.79 24.34,10.32 24.18,19.85 24.29,29.38 33.26,20.55 40.6,10.15 49.28,1.04 59.84,0.41 70.53,0.76 81.13,0.9 71.99,10.75 62.33,20.09 53.23,29.97 62.81,46.13 73.03,61.92 82.47,78.16 72.71,78.22 62.92,78.5 53.17,78.05 47.41,67.76 42.4,57.04 36.81,46.65 32.56,50.75 28.39,54.98 24.48,59.39 23.9,65.64 24.47,71.94 24.22,78.21 16.15,78.27 8.07,78.34 0,78.15 L 0,0.81 z"
           inkscape:connector-curvature="0"
           style="fill:#ee1c25" />
        <path
           id="path3980"
           d="M 86.99,0.87 C 91.3,0.21 95.66,0.71 100,0.7 c 11.67,-0.02 23.35,-0.25 35.02,0.01 7.45,0.16 15.14,4.02 18.39,10.96 4.57,9.11 0.38,22.01 -9.88,24.9 2.82,2.27 6.87,2.63 9.49,5.37 10.49,9.51 6.26,29.3 -7.08,33.94 -12.33,3.63 -25.31,2.22 -37.98,2.5 -7,-0.21 -14.02,0.4 -21.02,-0.19 0.02,-25.78 -0.07,-51.55 0.05,-77.32 m 24.18,15.38 c -0.21,4.91 -0.06,9.82 -0.12,14.73 5.19,-0.16 10.46,0.47 15.61,-0.38 5.83,-1.27 6.94,-10.18 1.82,-13.03 -5.45,-2.39 -11.56,-0.91 -17.31,-1.32 m -0.13,29.78 c 0.1,5.24 -0.13,10.49 0.17,15.73 5.94,-0.35 12.04,0.74 17.87,-0.74 4.32,-0.9 6.98,-6.2 5.16,-10.2 -1.3,-3.21 -4.92,-4.82 -8.22,-4.78 -4.99,-0.12 -9.99,-0.03 -14.98,-0.01 z"
           inkscape:connector-curvature="0"
           style="fill:#ee1c25" />
        <path
           id="path3982"
           d="m 167.82,0.77 c 19.38,-0.21 38.77,-0.14 58.16,-0.14 3.23,-0.09 6.51,-0.24 9.69,0.54 -0.21,5.09 0,10.18 -0.16,15.26 -14.43,14.95 -28.83,29.92 -43.14,44.98 3.16,0.61 6.4,0.27 9.6,0.33 11.74,0.04 23.49,-0.06 35.24,0.05 0.08,5.46 0.08,10.93 0,16.4 -22.72,0.41 -45.46,0.07 -68.19,0.15 -1.91,0.06 -3.81,-0.12 -5.69,-0.48 0.26,-5.15 -0.08,-10.31 0.16,-15.46 11.48,-12.46 23.42,-24.54 35.11,-36.82 2.63,-2.76 5.42,-5.39 7.67,-8.48 -12.83,-0.11 -25.66,0.03 -38.49,-0.07 -0.04,-5.42 -0.11,-10.84 0.04,-16.26 z"
           inkscape:connector-curvature="0"
           style="fill:#ee1c25" />
        <path
           id="path3984"
           d="m 276.98,0.88 c 15,-0.62 30.04,-0.03 45.06,-0.33 7.83,-0.26 16.56,2.59 20.63,9.75 5.67,9.02 1.78,23.03 -8.88,26.19 0.57,1.46 2.33,1.46 3.57,2.09 5.45,1.98 9.87,6.72 10.92,12.5 2.99,10.57 -3.75,23.22 -14.75,25.52 -5.45,0.9 -10.94,1.95 -16.49,1.76 -13.35,-0.14 -26.72,0.4 -40.06,-0.24 -0.08,-25.75 -0.07,-51.49 0,-77.24 m 24.21,15.35 c -0.25,4.91 -0.06,9.82 -0.16,14.73 5.22,-0.13 10.52,0.5 15.69,-0.37 5.77,-1.31 6.88,-10.22 1.77,-13.04 -5.44,-2.39 -11.56,-0.86 -17.3,-1.32 m -0.14,29.79 c 0.07,5.25 -0.11,10.5 0.14,15.74 5.58,-0.25 11.24,0.46 16.78,-0.41 4.86,-0.47 8.37,-6.06 6.33,-10.58 -1.25,-3.33 -5.02,-4.73 -8.33,-4.74 -4.97,-0.09 -9.95,-0.01 -14.92,-0.01 z"
           inkscape:connector-curvature="0"
           style="fill:#ee1c25" />
        <path
           id="path3986"
           d="m 377.04,0.92 c 2.3,-0.43 4.64,-0.49 6.98,-0.37 6.55,0.23 13.12,-0.34 19.65,0.38 8.43,22.97 17.18,45.83 25.75,68.76 1.06,2.83 2.27,5.62 3,8.57 -8.37,0.13 -16.78,0.41 -25.15,-0.17 -0.97,-4.12 -2.46,-8.1 -3.44,-12.23 -9.21,-0.56 -18.48,-0.31 -27.7,-0.13 -0.98,4.15 -2.49,8.16 -3.4,12.32 -8.19,0.56 -16.45,0.49 -24.64,-0.02 9.61,-25.72 19.32,-51.4 28.95,-77.11 m 12.5,21.58 c -1.82,5.07 -3.1,10.34 -4.76,15.47 -1,3.6 -2.55,7.08 -2.89,10.84 5.42,-0.1 10.85,-0.11 16.28,0 -1.72,-9.17 -5.43,-17.88 -7.7,-26.94 -0.23,0.16 -0.7,0.47 -0.93,0.63 z"
           inkscape:connector-curvature="0"
           style="fill:#ee1c25" />
        <path
           id="path3988"
           d="m 438.79,0.78 c 7.06,-0.27 14.13,-0.12 21.18,-0.07 1.48,-0.23 2.14,1.32 2.9,2.27 7.74,11.58 15.66,23.04 23.47,34.57 1.17,1.8 2.27,3.69 3.97,5.07 0.21,-13.82 0.16,-27.66 0.03,-41.48 2.49,-0.71 5.09,-0.65 7.67,-0.56 5.01,0.17 10.04,-0.31 15.05,0.28 -0.01,25.77 0.05,51.53 -0.03,77.29 -6,0.52 -12.01,0.04 -18.01,0.28 -2.01,-0.12 -4.8,0.54 -5.81,-1.76 -8.44,-12.51 -17.03,-24.91 -25.45,-37.43 -0.63,-1.02 -1.5,-1.84 -2.47,-2.52 -0.13,13.8 0.08,27.6 -0.1,41.39 -7.46,0.49 -14.96,0.35 -22.42,0.03 -0.03,-25.78 -0.08,-51.57 0.02,-77.36 z"
           inkscape:connector-curvature="0"
           style="fill:#ee1c25" />
        <path
           id="path3990"
           d="m 525.35,1.14 c 7.9,-0.93 15.93,-0.5 23.87,-0.28 0.1,9.45 -0.03,18.9 0.07,28.35 1.87,-1.03 3.09,-2.82 4.45,-4.41 6.14,-7.22 12.36,-14.37 18.48,-21.61 1.04,-1.09 2.03,-2.73 3.79,-2.54 10,0.11 20.04,-0.48 30.01,0.41 -9.13,9.76 -18.72,19.08 -27.78,28.91 7.93,13.28 16.14,26.38 24.17,39.6 1.67,2.8 3.61,5.46 4.85,8.5 -9.42,0.7 -18.89,0.15 -28.32,0.27 l -0.8,-0.36 c -5.73,-10.26 -10.7,-20.95 -16.32,-31.28 -4.42,3.97 -8.27,8.54 -12.55,12.67 -0.05,6.27 0.02,12.53 -0.03,18.8 -7.95,0.37 -16.01,0.51 -23.92,-0.27 0.19,-25.58 0.14,-51.17 0.03,-76.76 z"
           inkscape:connector-curvature="0"
           style="fill:#ee1c25" />
      </g>
    </g>
  </g>
</svg>
